Sweynheim&Pannartz-ProtoRoman115R-1.1.ufo
<glyph name="ampersand" format="2">
	<advance width="644"/>
	<unicode hex="0026"/>
	<outline>
		<contour>
			<point x="151" y="-10" type="curve"/>
			<point x="151" y="-10" type="line"/>
			<point x="214" y="-10"/>
			<point x="269" y="28"/>
			<point x="326" y="84" type="curve"/>
			<point x="358" y="38"/>
			<point x="382" y="0"/>
			<point x="396" y="0" type="curve"/>
			<point x="444" y="0"/>
			<point x="545" y="52"/>
			<point x="614" y="116" type="curve"/>
			<point x="597" y="136" type="line"/>
			<point x="548" y="97"/>
			<point x="485" y="75"/>
			<point x="467" y="75" type="curve"/>
			<point x="436" y="75"/>
			<point x="410" y="101"/>
			<point x="378" y="139" type="curve"/>
			<point x="486" y="261"/>
			<point x="572" y="408"/>
			<point x="614" y="455" type="curve"/>
			<point x="611" y="465" type="line"/>
			<point x="528" y="450" type="line"/>
			<point x="527" y="395"/>
			<point x="451" y="273"/>
			<point x="356" y="167" type="curve"/>
			<point x="331" y="197"/>
			<point x="301" y="232"/>
			<point x="264" y="266" type="curve"/>
			<point x="313" y="301"/>
			<point x="328" y="336"/>
			<point x="328" y="369" type="curve"/>
			<point x="328" y="444"/>
			<point x="261" y="474"/>
			<point x="203" y="474" type="curve"/>
			<point x="129" y="474"/>
			<point x="74" y="416"/>
			<point x="74" y="346" type="curve"/>
			<point x="74" y="309"/>
			<point x="91" y="276"/>
			<point x="121" y="252" type="curve"/>
			<point x="64" y="209"/>
			<point x="35" y="161"/>
			<point x="35" y="105" type="curve"/>
			<point x="35" y="25"/>
			<point x="83" y="-10"/>
		</contour>
		<contour>
			<point x="164" y="45" type="curve"/>
			<point x="164" y="45" type="line"/>
			<point x="127" y="45"/>
			<point x="103" y="66"/>
			<point x="103" y="101" type="curve"/>
			<point x="103" y="146"/>
			<point x="134" y="186"/>
			<point x="192" y="222" type="curve"/>
			<point x="236" y="200"/>
			<point x="274" y="157"/>
			<point x="305" y="114" type="curve"/>
			<point x="256" y="69"/>
			<point x="211" y="45"/>
		</contour>
		<contour>
			<point x="209" y="297" type="curve"/>
			<point x="209" y="297" type="line"/>
			<point x="161" y="307"/>
			<point x="127" y="337"/>
			<point x="127" y="366" type="curve"/>
			<point x="127" y="398"/>
			<point x="147" y="428"/>
			<point x="190" y="428" type="curve"/>
			<point x="229" y="428"/>
			<point x="252" y="401"/>
			<point x="252" y="368" type="curve"/>
			<point x="252" y="343"/>
			<point x="238" y="315"/>
		</contour>
	</outline>
</glyph>
<glyph name="hyphen" format="2">
	<advance width="383"/>
	<unicode hex="002D"/>
	<outline>
		<contour>
			<point x="30" y="31" type="curve"/>
			<point x="47" y="-14" type="line"/>
			<point x="383" y="624" type="line"/>
			<point x="331" y="696" type="line"/>
			<point x="243" y="502"/>
			<point x="132" y="242"/>
		</contour>
	</outline>
</glyph>
<glyph name="period" format="2">
	<advance width="177"/>
	<unicode hex="002E"/>
	<outline>
		<contour>
			<point x="86" y="-10" type="curve"/>
			<point x="86" y="-10" type="line"/>
			<point x="90" y="-10" type="line"/>
			<point x="115" y="11"/>
			<point x="138" y="34"/>
			<point x="157" y="57" type="curve"/>
			<point x="157" y="61" type="line"/>
			<point x="135" y="84"/>
			<point x="112" y="107"/>
			<point x="90" y="128" type="curve"/>
			<point x="86" y="128" type="line"/>
			<point x="62" y="107"/>
			<point x="39" y="85"/>
			<point x="20" y="62" type="curve"/>
			<point x="20" y="58" type="line"/>
			<point x="40" y="33"/>
			<point x="62" y="10"/>
		</contour>
	</outline>
</glyph>
<glyph name="colon" format="2">
	<advance width="177"/>
	<unicode hex="003A"/>
	<outline>
		<contour>
			<point x="86" y="282" type="curve"/>
			<point x="86" y="282" type="line"/>
			<point x="90" y="282" type="line"/>
			<point x="115" y="303"/>
			<point x="138" y="326"/>
			<point x="157" y="349" type="curve"/>
			<point x="157" y="353" type="line"/>
			<point x="135" y="376"/>
			<point x="112" y="399"/>
			<point x="90" y="420" type="curve"/>
			<point x="86" y="420" type="line"/>
			<point x="62" y="399"/>
			<point x="39" y="377"/>
			<point x="20" y="354" type="curve"/>
			<point x="20" y="350" type="line"/>
			<point x="40" y="325"/>
			<point x="62" y="302"/>
		</contour>
		<contour>
			<point x="86" y="50" type="curve"/>
			<point x="86" y="50" type="line"/>
			<point x="90" y="50" type="line"/>
			<point x="115" y="71"/>
			<point x="138" y="94"/>
			<point x="157" y="117" type="curve"/>
			<point x="157" y="121" type="line"/>
			<point x="135" y="144"/>
			<point x="112" y="167"/>
			<point x="90" y="188" type="curve"/>
			<point x="86" y="188" type="line"/>
			<point x="62" y="167"/>
			<point x="39" y="145"/>
			<point x="20" y="122" type="curve"/>
			<point x="20" y="118" type="line"/>
			<point x="40" y="93"/>
			<point x="62" y="70"/>
		</contour>
	</outline>
</glyph>
<glyph name="question" format="2">
	<advance width="284"/>
	<unicode hex="003F"/>
	<outline>
		<contour>
			<point x="81" y="249" type="curve"/>
			<point x="81" y="249" type="line"/>
			<point x="161" y="296" type="line"/>
			<point x="154" y="313"/>
			<point x="145" y="334"/>
			<point x="145" y="354" type="curve"/>
			<point x="145" y="430"/>
			<point x="279" y="481"/>
			<point x="279" y="571" type="curve"/>
			<point x="279" y="627"/>
			<point x="234" y="695"/>
			<point x="145" y="710" type="curve"/>
			<point x="160" y="623" type="line"/>
			<point x="188" y="616"/>
			<point x="223" y="584"/>
			<point x="223" y="536" type="curve"/>
			<point x="223" y="432"/>
			<point x="3" y="407"/>
		</contour>
		<contour>
			<point x="96" y="-10" type="curve"/>
			<point x="96" y="-10" type="line"/>
			<point x="100" y="-10" type="line"/>
			<point x="125" y="11"/>
			<point x="148" y="34"/>
			<point x="167" y="57" type="curve"/>
			<point x="167" y="61" type="line"/>
			<point x="145" y="84"/>
			<point x="122" y="107"/>
			<point x="100" y="128" type="curve"/>
			<point x="96" y="128" type="line"/>
			<point x="72" y="107"/>
			<point x="49" y="85"/>
			<point x="30" y="62" type="curve"/>
			<point x="30" y="58" type="line"/>
			<point x="50" y="33"/>
			<point x="72" y="10"/>
		</contour>
	</outline>
</glyph>
<glyph name="A" format="2">
	<advance width="630"/>
	<unicode hex="0041"/>
	<outline>
		<contour>
			<point x="10" y="-7" type="line"/>
			<point x="29" y="-5"/>
			<point x="123" y="-1"/>
			<point x="176" y="-3" type="curve"/>
			<point x="176" y="27" type="line"/>
			<point x="130" y="33"/>
			<point x="128" y="31"/>
			<point x="137" y="77" type="curve" smooth="yes"/>
			<point x="170" y="240" type="line"/>
			<point x="375" y="240" type="line"/>
			<point x="431" y="105" type="line" smooth="yes"/>
			<point x="454" y="50"/>
			<point x="454" y="44"/>
			<point x="400" y="25" type="curve"/>
			<point x="400" y="-5" type="line"/>
			<point x="473" y="-1"/>
			<point x="571" y="0"/>
			<point x="625" y="-5" type="curve"/>
			<point x="625" y="30" type="line"/>
			<point x="570" y="42"/>
			<point x="569" y="43"/>
			<point x="538" y="111" type="curve" smooth="yes"/>
			<point x="456" y="293"/>
			<point x="372" y="482"/>
			<point x="296" y="664" type="curve"/>
			<point x="317" y="676" type="line"/>
			<point x="299" y="709" type="line"/>
			<point x="236" y="684"/>
			<point x="166" y="660"/>
			<point x="103" y="637" type="curve"/>
			<point x="113" y="602" type="line"/>
			<point x="206" y="629" type="line"/>
			<point x="84" y="115" type="line" smooth="yes"/>
			<point x="64" y="30"/>
			<point x="64" y="32"/>
			<point x="10" y="24" type="curve"/>
		</contour>
		<contour>
			<point x="180" y="288" type="line"/>
			<point x="239" y="573" type="line"/>
			<point x="356" y="288" type="line"/>
		</contour>
	</outline>
</glyph>
<glyph name="B" format="2">
	<advance width="608"/>
	<unicode hex="0042"/>
	<outline>
		<contour>
			<point x="30" y="31" type="line"/>
			<point x="30" y="-4" type="line"/>
			<point x="124" y="5"/>
			<point x="203" y="-1"/>
			<point x="307" y="-1" type="curve"/>
			<point x="467" y="-1"/>
			<point x="568" y="69"/>
			<point x="568" y="184" type="curve"/>
			<point x="568" y="290"/>
			<point x="482" y="349"/>
			<point x="392" y="399" type="curve"/>
			<point x="430" y="430"/>
			<point x="491" y="478"/>
			<point x="512" y="518" type="curve"/>
			<point x="532" y="647"/>
			<point x="429" y="707"/>
			<point x="326" y="707" type="curve"/>
			<point x="236" y="707"/>
			<point x="130" y="696"/>
			<point x="32" y="699" type="curve"/>
			<point x="32" y="664" type="line"/>
			<point x="102" y="656" type="line"/>
			<point x="102" y="501"/>
			<point x="105" y="196"/>
			<point x="100" y="41" type="curve"/>
		</contour>
		<contour>
			<point x="296" y="34" type="curve"/>
			<point x="296" y="34" type="line"/>
			<point x="252" y="34"/>
			<point x="220" y="45"/>
			<point x="204" y="53" type="curve"/>
			<point x="204" y="52"/>
			<point x="202" y="201"/>
			<point x="202" y="355" type="curve"/>
			<point x="241" y="364"/>
			<point x="289" y="367"/>
			<point x="320" y="367" type="curve"/>
			<point x="388" y="367"/>
			<point x="466" y="291"/>
			<point x="466" y="186" type="curve"/>
			<point x="466" y="94"/>
			<point x="402" y="34"/>
		</contour>
		<contour>
			<point x="266" y="399" type="curve"/>
			<point x="266" y="399" type="line"/>
			<point x="245" y="399"/>
			<point x="223" y="399"/>
			<point x="202" y="402" type="curve"/>
			<point x="202" y="513"/>
			<point x="202" y="619"/>
			<point x="204" y="665" type="curve"/>
			<point x="328" y="677"/>
			<point x="421" y="645"/>
			<point x="421" y="535" type="curve"/>
			<point x="421" y="466"/>
			<point x="353" y="399"/>
		</contour>
	</outline>
</glyph>
<glyph name="C" format="2">
	<advance width="694"/>
	<unicode hex="0043"/>
	<outline>
		<contour>
			<point x="382" y="-10" type="curve"/>
			<point x="382" y="-10" type="line"/>
			<point x="492" y="-10"/>
			<point x="553" y="19"/>
			<point x="621" y="60" type="curve"/>
			<point x="631" y="17" type="line"/>
			<point x="660" y="17" type="line"/>
			<point x="669" y="204" type="line"/>
			<point x="639" y="206" type="line"/>
			<point x="619" y="80"/>
			<point x="504" y="33"/>
			<point x="414" y="33" type="curve"/>
			<point x="234" y="33"/>
			<point x="125" y="173"/>
			<point x="125" y="350" type="curve"/>
			<point x="125" y="504"/>
			<point x="229" y="670"/>
			<point x="427" y="670" type="curve"/>
			<point x="516" y="670"/>
			<point x="572" y="639"/>
			<point x="607" y="572" type="curve"/>
			<point x="633" y="577" type="line"/>
			<point x="628" y="700" type="line"/>
			<point x="591" y="700"/>
			<point x="541" y="710"/>
			<point x="455" y="710" type="curve"/>
			<point x="224" y="710"/>
			<point x="20" y="569"/>
			<point x="20" y="339" type="curve"/>
			<point x="20" y="112"/>
			<point x="182" y="-10"/>
		</contour>
	</outline>
</glyph>
<glyph name="D" format="2">
	<advance width="837"/>
	<unicode hex="0044"/>
	<outline>
		<contour>
			<point x="72" y="-12" type="line"/>
			<point x="152" y="13"/>
			<point x="229" y="-10"/>
			<point x="380" y="-10" type="curve" smooth="yes"/>
			<point x="660" y="-10"/>
			<point x="817" y="169"/>
			<point x="817" y="359" type="curve" smooth="yes"/>
			<point x="817" y="599"/>
			<point x="644" y="705"/>
			<point x="396" y="705" type="curve" smooth="yes"/>
			<point x="265" y="705"/>
			<point x="196" y="700"/>
			<point x="30" y="703" type="curve"/>
			<point x="30" y="668" type="line"/>
			<point x="62" y="667"/>
			<point x="95" y="664"/>
			<point x="127" y="657" type="curve"/>
			<point x="131" y="500"/>
			<point x="132" y="196"/>
			<point x="122" y="41" type="curve"/>
			<point x="62" y="25" type="line"/>
		</contour>
		<contour>
			<point x="390" y="30" type="curve" smooth="yes"/>
			<point x="316" y="30"/>
			<point x="285" y="36"/>
			<point x="238" y="49" type="curve"/>
			<point x="231" y="246"/>
			<point x="226" y="425"/>
			<point x="230" y="555" type="curve" smooth="yes"/>
			<point x="233" y="638"/>
			<point x="263" y="665"/>
			<point x="364" y="665" type="curve" smooth="yes"/>
			<point x="565" y="665"/>
			<point x="706" y="555"/>
			<point x="706" y="345" type="curve" smooth="yes"/>
			<point x="706" y="167"/>
			<point x="587" y="30"/>
		</contour>
	</outline>
</glyph>
<glyph name="E" format="2">
	<advance width="791"/>
	<unicode hex="0045"/>
	<outline>
		<contour>
			<point x="674" y="0" type="curve"/>
			<point x="685" y="-17" type="line"/>
			<point x="703" y="-17" type="line"/>
			<point x="707" y="22"/>
			<point x="726" y="94"/>
			<point x="756" y="182" type="curve"/>
			<point x="727" y="191" type="line"/>
			<point x="669" y="54"/>
			<point x="611" y="48"/>
			<point x="241" y="48" type="curve"/>
			<point x="238" y="103"/>
			<point x="238" y="216"/>
			<point x="238" y="333" type="curve"/>
			<point x="511" y="330" type="line" smooth="yes"/>
			<point x="568" y="330"/>
			<point x="550" y="309"/>
			<point x="550" y="183" type="curve"/>
			<point x="586" y="179" type="line"/>
			<point x="596" y="290"/>
			<point x="620" y="392"/>
			<point x="636" y="493" type="curve"/>
			<point x="601" y="496" type="line"/>
			<point x="573" y="390"/>
			<point x="571" y="386"/>
			<point x="506" y="385" type="curve"/>
			<point x="238" y="382" type="line"/>
			<point x="239" y="494"/>
			<point x="240" y="600"/>
			<point x="240" y="652" type="curve"/>
			<point x="505" y="651" type="line" smooth="yes"/>
			<point x="611" y="651"/>
			<point x="609" y="620"/>
			<point x="615" y="571" type="curve"/>
			<point x="644" y="571" type="line"/>
			<point x="682" y="713" type="line"/>
			<point x="527" y="704"/>
			<point x="251" y="686"/>
			<point x="34" y="700" type="curve"/>
			<point x="30" y="663" type="line"/>
			<point x="129" y="655"/>
			<point x="129" y="655"/>
			<point x="132" y="614" type="curve"/>
			<point x="141" y="495"/>
			<point x="141" y="244"/>
			<point x="135" y="101" type="curve"/>
			<point x="133" y="51"/>
			<point x="133" y="41"/>
			<point x="37" y="17" type="curve"/>
			<point x="46" y="-15" type="line"/>
			<point x="109" y="4"/>
			<point x="479" y="6"/>
		</contour>
	</outline>
</glyph>
<glyph name="F" format="2">
	<advance width="798"/>
	<unicode hex="0046"/>
	<outline>
		<contour>
			<point x="30" y="-7" type="line"/>
			<point x="145" y="-1"/>
			<point x="283" y="-1"/>
			<point x="368" y="-7" type="curve"/>
			<point x="368" y="30" type="line"/>
			<point x="253" y="44"/>
			<point x="245" y="47"/>
			<point x="244" y="91" type="curve" smooth="yes"/>
			<point x="243" y="140"/>
			<point x="242" y="232"/>
			<point x="241" y="330" type="curve"/>
			<point x="522" y="328" type="line" smooth="yes"/>
			<point x="615" y="327"/>
			<point x="615" y="331"/>
			<point x="615" y="257" type="curve"/>
			<point x="641" y="252" type="line"/>
			<point x="701" y="452" type="line"/>
			<point x="671" y="458" type="line"/>
			<point x="628" y="382"/>
			<point x="624" y="380"/>
			<point x="565" y="380" type="curve" smooth="yes"/>
			<point x="241" y="378" type="line"/>
			<point x="242" y="492"/>
			<point x="243" y="604"/>
			<point x="248" y="652" type="curve"/>
			<point x="551" y="650" type="line" smooth="yes"/>
			<point x="671" y="649"/>
			<point x="690" y="639"/>
			<point x="694" y="569" type="curve"/>
			<point x="721" y="566" type="line"/>
			<point x="773" y="710" type="line"/>
			<point x="661" y="697"/>
			<point x="225" y="699"/>
			<point x="33" y="707" type="curve"/>
			<point x="33" y="673" type="line"/>
			<point x="127" y="663"/>
			<point x="132" y="667"/>
			<point x="135" y="624" type="curve" smooth="yes"/>
			<point x="144" y="488"/>
			<point x="144" y="239"/>
			<point x="138" y="96" type="curve" smooth="yes"/>
			<point x="136" y="48"/>
			<point x="130" y="42"/>
			<point x="30" y="28" type="curve"/>
		</contour>
	</outline>
</glyph>
<glyph name="G" format="2">
	<advance width="804"/>
	<unicode hex="0047"/>
	<outline>
		<contour>
			<point x="483" y="-10" type="curve" smooth="yes"/>
			<point x="613" y="-10"/>
			<point x="696" y="3"/>
			<point x="750" y="12" type="curve"/>
			<point x="742" y="62"/>
			<point x="739" y="213"/>
			<point x="743" y="272" type="curve"/>
			<point x="764" y="286" type="line"/>
			<point x="753" y="314" type="line"/>
			<point x="687" y="293"/>
			<point x="618" y="275"/>
			<point x="549" y="265" type="curve"/>
			<point x="553" y="234" type="line"/>
			<point x="649" y="247" type="line"/>
			<point x="649" y="55" type="line"/>
			<point x="591" y="36"/>
			<point x="553" y="29"/>
			<point x="485" y="29" type="curve" smooth="yes"/>
			<point x="265" y="29"/>
			<point x="130" y="120"/>
			<point x="130" y="340" type="curve" smooth="yes"/>
			<point x="130" y="540"/>
			<point x="281" y="668"/>
			<point x="491" y="668" type="curve" smooth="yes"/>
			<point x="652" y="668"/>
			<point x="717" y="608"/>
			<point x="717" y="438" type="curve"/>
			<point x="745" y="436" type="line"/>
			<point x="758" y="680" type="line"/>
			<point x="685" y="696"/>
			<point x="599" y="710"/>
			<point x="481" y="710" type="curve" smooth="yes"/>
			<point x="221" y="710"/>
			<point x="20" y="570"/>
			<point x="20" y="340" type="curve" smooth="yes"/>
			<point x="20" y="110"/>
			<point x="193" y="-10"/>
		</contour>
	</outline>
</glyph>
<glyph name="H" format="2">
	<advance width="956"/>
	<unicode hex="0048"/>
	<outline>
		<contour>
			<point x="34" y="33" type="curve"/>
			<point x="34" y="-3" type="line"/>
			<point x="118" y="2"/>
			<point x="219" y="2"/>
			<point x="334" y="-3" type="curve"/>
			<point x="334" y="33" type="line"/>
			<point x="239" y="42"/>
			<point x="236" y="40"/>
			<point x="235" y="55" type="curve"/>
			<point x="232" y="147"/>
			<point x="230" y="238"/>
			<point x="229" y="330" type="curve"/>
			<point x="740" y="330" type="line"/>
			<point x="741" y="239"/>
			<point x="741" y="148"/>
			<point x="738" y="55" type="curve"/>
			<point x="737" y="40"/>
			<point x="734" y="44"/>
			<point x="631" y="35" type="curve"/>
			<point x="631" y="-3" type="line"/>
			<point x="684" y="2"/>
			<point x="865" y="2"/>
			<point x="916" y="-3" type="curve"/>
			<point x="916" y="32" type="line"/>
			<point x="865" y="39"/>
			<point x="851" y="44"/>
			<point x="847" y="127" type="curve"/>
			<point x="841" y="257"/>
			<point x="845" y="440"/>
			<point x="849" y="610" type="curve"/>
			<point x="850" y="649"/>
			<point x="866" y="659"/>
			<point x="894" y="668" type="curve"/>
			<point x="894" y="703" type="line"/>
			<point x="837" y="697"/>
			<point x="710" y="697"/>
			<point x="604" y="703" type="curve"/>
			<point x="604" y="659" type="line"/>
			<point x="736" y="665"/>
			<point x="737" y="666"/>
			<point x="737" y="653" type="curve"/>
			<point x="737" y="558"/>
			<point x="739" y="468"/>
			<point x="740" y="380" type="curve"/>
			<point x="229" y="380" type="line"/>
			<point x="229" y="471"/>
			<point x="231" y="564"/>
			<point x="236" y="660" type="curve"/>
			<point x="236" y="658"/>
			<point x="249" y="661"/>
			<point x="331" y="666" type="curve"/>
			<point x="331" y="703" type="line"/>
			<point x="255" y="697"/>
			<point x="136" y="697"/>
			<point x="30" y="703" type="curve"/>
			<point x="30" y="668" type="line"/>
			<point x="107" y="659"/>
			<point x="123" y="659"/>
			<point x="126" y="540" type="curve"/>
			<point x="128" y="450"/>
			<point x="132" y="257"/>
			<point x="126" y="127" type="curve"/>
			<point x="122" y="44"/>
			<point x="118" y="40"/>
		</contour>
	</outline>
</glyph>
<glyph name="I" format="2">
	<advance width="387"/>
	<unicode hex="0049"/>
	<outline>
		<contour>
			<point x="37" y="26" type="curve"/>
			<point x="37" y="-9" type="line"/>
			<point x="106" y="1"/>
			<point x="307" y="2"/>
			<point x="372" y="-3" type="curve"/>
			<point x="372" y="35" type="line"/>
			<point x="237" y="44"/>
			<point x="234" y="40"/>
			<point x="229" y="165" type="curve"/>
			<point x="226" y="255"/>
			<point x="224" y="450"/>
			<point x="234" y="650" type="curve"/>
			<point x="234" y="658"/>
			<point x="235" y="661"/>
			<point x="367" y="666" type="curve"/>
			<point x="367" y="703" type="line"/>
			<point x="261" y="697"/>
			<point x="134" y="697"/>
			<point x="30" y="703" type="curve"/>
			<point x="30" y="668" type="line"/>
			<point x="115" y="659"/>
			<point x="121" y="659"/>
			<point x="124" y="550" type="curve"/>
			<point x="126" y="450"/>
			<point x="128" y="257"/>
			<point x="120" y="47" type="curve"/>
			<point x="120" y="34"/>
			<point x="116" y="33"/>
		</contour>
	</outline>
</glyph>
<glyph name="J" format="2">
	<advance width="349"/>
	<unicode hex="004A"/>
	<outline>
		<contour>
			<point x="10" y="-270" type="line"/>
			<point x="170" y="-156"/>
			<point x="231" y="-32"/>
			<point x="229" y="111" type="curve" smooth="yes"/>
			<point x="227" y="241"/>
			<point x="228" y="450"/>
			<point x="234" y="620" type="curve" smooth="yes"/>
			<point x="235" y="658"/>
			<point x="257" y="659"/>
			<point x="329" y="668" type="curve"/>
			<point x="329" y="703" type="line"/>
			<point x="263" y="697"/>
			<point x="136" y="697"/>
			<point x="32" y="703" type="curve"/>
			<point x="32" y="668" type="line"/>
			<point x="107" y="659"/>
			<point x="123" y="659"/>
			<point x="124" y="620" type="curve" smooth="yes"/>
			<point x="128" y="450"/>
			<point x="130" y="273"/>
			<point x="126" y="153" type="curve" smooth="yes"/>
			<point x="118" y="-83"/>
			<point x="109" y="-128"/>
			<point x="-15" y="-239" type="curve"/>
		</contour>
	</outline>
</glyph>
<glyph name="K" format="2">
	<advance width="907"/>
	<unicode hex="004B"/>
	<outline>
		<contour>
			<point x="680" y="-10" type="curve"/>
			<point x="680" y="-10" type="line"/>
			<point x="802" y="-10"/>
			<point x="860" y="-6"/>
			<point x="907" y="4" type="curve"/>
			<point x="903" y="38" type="line"/>
			<point x="688" y="50"/>
			<point x="636" y="72"/>
			<point x="566" y="127" type="curve"/>
			<point x="436" y="228"/>
			<point x="406" y="261"/>
			<point x="337" y="336" type="curve"/>
			<point x="620" y="564" type="line" smooth="yes"/>
			<point x="737" y="658"/>
			<point x="748" y="655"/>
			<point x="855" y="667" type="curve"/>
			<point x="855" y="702" type="line"/>
			<point x="743" y="697"/>
			<point x="653" y="697"/>
			<point x="534" y="702" type="curve"/>
			<point x="534" y="667" type="line"/>
			<point x="621" y="654"/>
			<point x="629" y="646"/>
			<point x="591" y="614" type="curve"/>
			<point x="232" y="313" type="line"/>
			<point x="232" y="417"/>
			<point x="235" y="522"/>
			<point x="237" y="620" type="curve"/>
			<point x="238" y="659"/>
			<point x="254" y="659"/>
			<point x="329" y="668" type="curve"/>
			<point x="329" y="703" type="line"/>
			<point x="225" y="697"/>
			<point x="101" y="697"/>
			<point x="35" y="703" type="curve"/>
			<point x="35" y="666" type="line"/>
			<point x="107" y="661"/>
			<point x="129" y="658"/>
			<point x="130" y="620" type="curve"/>
			<point x="134" y="450"/>
			<point x="134" y="255"/>
			<point x="130" y="85" type="curve"/>
			<point x="129" y="43"/>
			<point x="115" y="44"/>
			<point x="30" y="35" type="curve"/>
			<point x="30" y="-3" type="line"/>
			<point x="87" y="0"/>
			<point x="253" y="2"/>
			<point x="342" y="-3" type="curve"/>
			<point x="342" y="32" type="line"/>
			<point x="243" y="39"/>
			<point x="239" y="44"/>
			<point x="237" y="87" type="curve"/>
			<point x="234" y="141"/>
			<point x="233" y="196"/>
			<point x="233" y="253" type="curve"/>
			<point x="256" y="272" type="line"/>
			<point x="453" y="82"/>
			<point x="555" y="-10"/>
		</contour>
	</outline>
</glyph>
<glyph name="L" format="2">
	<advance width="742"/>
	<unicode hex="004C"/>
	<outline>
		<contour>
			<point x="605" y="-7" type="curve"/>
			<point x="660" y="48"/>
			<point x="705" y="108"/>
			<point x="742" y="175" type="curve"/>
			<point x="711" y="193" type="line"/>
			<point x="592" y="39"/>
			<point x="575" y="43"/>
			<point x="227" y="43" type="curve"/>
			<point x="222" y="148"/>
			<point x="223" y="552"/>
			<point x="227" y="611" type="curve" smooth="yes"/>
			<point x="230" y="662"/>
			<point x="230" y="662"/>
			<point x="362" y="668" type="curve"/>
			<point x="362" y="703" type="line"/>
			<point x="246" y="699"/>
			<point x="134" y="699"/>
			<point x="30" y="703" type="curve"/>
			<point x="30" y="669" type="line"/>
			<point x="111" y="664"/>
			<point x="120" y="668"/>
			<point x="122" y="620" type="curve" smooth="yes"/>
			<point x="127" y="509"/>
			<point x="125" y="178"/>
			<point x="122" y="99" type="curve" smooth="yes"/>
			<point x="120" y="42"/>
			<point x="121" y="42"/>
			<point x="38" y="30" type="curve"/>
			<point x="38" y="-5" type="line"/>
			<point x="206" y="0"/>
			<point x="413" y="8"/>
		</contour>
	</outline>
</glyph>
<glyph name="M" format="2">
	<advance width="1093"/>
	<unicode hex="004D"/>
	<outline>
		<contour>
			<point x="526" y="-10" type="curve"/>
			<point x="548" y="-10" type="line"/>
			<point x="573" y="80"/>
			<point x="579" y="111"/>
			<point x="664" y="254" type="curve" smooth="yes"/>
			<point x="864" y="590" type="line"/>
			<point x="869" y="489"/>
			<point x="868" y="142"/>
			<point x="862" y="91" type="curve" smooth="yes"/>
			<point x="857" y="44"/>
			<point x="852" y="44"/>
			<point x="694" y="33" type="curve"/>
			<point x="694" y="-4" type="line"/>
			<point x="796" y="4"/>
			<point x="950" y="3"/>
			<point x="1063" y="-5" type="curve"/>
			<point x="1063" y="30" type="line"/>
			<point x="998" y="43"/>
			<point x="983" y="45"/>
			<point x="978" y="91" type="curve" smooth="yes"/>
			<point x="969" y="170"/>
			<point x="970" y="519"/>
			<point x="975" y="620" type="curve" smooth="yes"/>
			<point x="977" y="657"/>
			<point x="995" y="661"/>
			<point x="1060" y="670" type="curve"/>
			<point x="1060" y="703" type="line"/>
			<point x="968" y="697"/>
			<point x="818" y="697"/>
			<point x="697" y="703" type="curve"/>
			<point x="697" y="669" type="line"/>
			<point x="779" y="664"/>
			<point x="819" y="661"/>
			<point x="840" y="651" type="curve"/>
			<point x="553" y="169" type="line"/>
			<point x="222" y="651" type="line"/>
			<point x="250" y="656"/>
			<point x="296" y="661"/>
			<point x="371" y="667" type="curve"/>
			<point x="371" y="703" type="line"/>
			<point x="254" y="698"/>
			<point x="115" y="698"/>
			<point x="30" y="703" type="curve"/>
			<point x="30" y="669" type="line"/>
			<point x="101" y="659"/>
			<point x="125" y="654"/>
			<point x="125" y="620" type="curve" smooth="yes"/>
			<point x="125" y="469"/>
			<point x="122" y="170"/>
			<point x="112" y="91" type="curve" smooth="yes"/>
			<point x="106" y="42"/>
			<point x="94" y="39"/>
			<point x="37" y="30" type="curve"/>
			<point x="31" y="-5" type="line"/>
			<point x="127" y="3"/>
			<point x="270" y="3"/>
			<point x="374" y="-5" type="curve"/>
			<point x="374" y="30" type="line"/>
			<point x="240" y="37"/>
			<point x="190" y="44"/>
			<point x="186" y="91" type="curve" smooth="yes"/>
			<point x="180" y="163"/>
			<point x="179" y="386"/>
			<point x="179" y="537" type="curve"/>
			<point x="267" y="417"/>
			<point x="395" y="238"/>
			<point x="476" y="103" type="curve" smooth="yes"/>
			<point x="502" y="60"/>
			<point x="513" y="21"/>
		</contour>
	</outline>
</glyph>
<glyph name="N" format="2">
	<advance width="985"/>
	<unicode hex="004E"/>
	<outline>
		<contour>
			<point x="50" y="-5" type="line"/>
			<point x="168" y="0"/>
			<point x="290" y="1"/>
			<point x="400" y="-5" type="curve"/>
			<point x="410" y="39" type="line"/>
			<point x="204" y="39"/>
			<point x="204" y="39"/>
			<point x="204" y="115" type="curve" smooth="yes"/>
			<point x="204" y="585" type="line"/>
			<point x="285" y="508"/>
			<point x="541" y="278"/>
			<point x="679" y="148" type="curve" smooth="yes"/>
			<point x="739" y="92"/>
			<point x="783" y="49"/>
			<point x="807" y="-5" type="curve"/>
			<point x="853" y="-5" type="line"/>
			<point x="836" y="148"/>
			<point x="836" y="302"/>
			<point x="843" y="575" type="curve" smooth="yes"/>
			<point x="845" y="659"/>
			<point x="840" y="658"/>
			<point x="955" y="670" type="curve"/>
			<point x="955" y="703" type="line"/>
			<point x="861" y="699"/>
			<point x="726" y="698"/>
			<point x="596" y="703" type="curve"/>
			<point x="596" y="668" type="line"/>
			<point x="776" y="663"/>
			<point x="783" y="664"/>
			<point x="783" y="597" type="curve" smooth="yes"/>
			<point x="783" y="192" type="line"/>
			<point x="607" y="337"/>
			<point x="430" y="529"/>
			<point x="242" y="702" type="curve"/>
			<point x="196" y="702"/>
			<point x="110" y="700"/>
			<point x="30" y="697" type="curve"/>
			<point x="34" y="660" type="line"/>
			<point x="84" y="660"/>
			<point x="112" y="658"/>
			<point x="149" y="633" type="curve"/>
			<point x="149" y="120" type="line" smooth="yes"/>
			<point x="149" y="35"/>
			<point x="140" y="36"/>
			<point x="56" y="30" type="curve"/>
		</contour>
	</outline>
</glyph>
<glyph name="O" format="2">
	<advance width="828"/>
	<unicode hex="004F"/>
	<outline>
		<contour>
			<point x="414" y="-10" type="curve"/>
			<point x="414" y="-10" type="line"/>
			<point x="634" y="-10"/>
			<point x="808" y="150"/>
			<point x="808" y="350" type="curve"/>
			<point x="808" y="550"/>
			<point x="634" y="710"/>
			<point x="414" y="710" type="curve"/>
			<point x="194" y="710"/>
			<point x="20" y="550"/>
			<point x="20" y="350" type="curve"/>
			<point x="20" y="150"/>
			<point x="194" y="-10"/>
		</contour>
		<contour>
			<point x="414" y="30" type="curve"/>
			<point x="414" y="30" type="line"/>
			<point x="254" y="30"/>
			<point x="130" y="170"/>
			<point x="130" y="350" type="curve"/>
			<point x="130" y="530"/>
			<point x="254" y="670"/>
			<point x="414" y="670" type="curve"/>
			<point x="574" y="670"/>
			<point x="698" y="530"/>
			<point x="698" y="350" type="curve"/>
			<point x="698" y="170"/>
			<point x="574" y="30"/>
		</contour>
	</outline>
</glyph>
<glyph name="P" format="2">
	<advance width="674"/>
	<unicode hex="0050"/>
	<outline>
		<contour>
			<point x="44" y="-3" type="line"/>
			<point x="160" y="1"/>
			<point x="367" y="1"/>
			<point x="491" y="-3" type="curve"/>
			<point x="491" y="27" type="line"/>
			<point x="281" y="41"/>
			<point x="274" y="42"/>
			<point x="271" y="91" type="curve" smooth="yes"/>
			<point x="265" y="196"/>
			<point x="264" y="534"/>
			<point x="271" y="653" type="curve"/>
			<point x="424" y="690"/>
			<point x="544" y="627"/>
			<point x="544" y="483" type="curve" smooth="yes"/>
			<point x="544" y="351"/>
			<point x="458" y="296"/>
			<point x="350" y="272" type="curve"/>
			<point x="352" y="246" type="line"/>
			<point x="487" y="263"/>
			<point x="654" y="333"/>
			<point x="654" y="493" type="curve" smooth="yes"/>
			<point x="654" y="616"/>
			<point x="550" y="703"/>
			<point x="405" y="703" type="curve" smooth="yes"/>
			<point x="303" y="703"/>
			<point x="165" y="696"/>
			<point x="30" y="703" type="curve"/>
			<point x="30" y="668" type="line"/>
			<point x="162" y="662"/>
			<point x="166" y="663"/>
			<point x="166" y="595" type="curve" smooth="yes"/>
			<point x="164" y="98" type="line" smooth="yes"/>
			<point x="164" y="40"/>
			<point x="151" y="38"/>
			<point x="44" y="35" type="curve"/>
		</contour>
	</outline>
</glyph>
<glyph name="Q" format="2">
	<advance width="826"/>
	<unicode hex="0051"/>
	<outline>
		<contour>
			<point x="944" y="-273" type="curve" smooth="yes"/>
			<point x="1063" y="-273"/>
			<point x="1174" y="-244"/>
			<point x="1276" y="-208" type="curve"/>
			<point x="1261" y="-170" type="line"/>
			<point x="1206" y="-188"/>
			<point x="1136" y="-205"/>
			<point x="1050" y="-205" type="curve" smooth="yes"/>
			<point x="856" y="-205"/>
			<point x="642" y="-65"/>
			<point x="549" y="11" type="curve"/>
			<point x="701" y="61"/>
			<point x="808" y="193"/>
			<point x="808" y="350" type="curve" smooth="yes"/>
			<point x="808" y="550"/>
			<point x="634" y="710"/>
			<point x="414" y="710" type="curve" smooth="yes"/>
			<point x="194" y="710"/>
			<point x="20" y="550"/>
			<point x="20" y="350" type="curve" smooth="yes"/>
			<point x="20" y="163"/>
			<point x="173" y="11"/>
			<point x="373" y="-8" type="curve"/>
			<point x="495" y="-71"/>
			<point x="761" y="-273"/>
		</contour>
		<contour>
			<point x="414" y="30" type="curve" smooth="yes"/>
			<point x="254" y="30"/>
			<point x="130" y="170"/>
			<point x="130" y="350" type="curve" smooth="yes"/>
			<point x="130" y="530"/>
			<point x="254" y="670"/>
			<point x="414" y="670" type="curve" smooth="yes"/>
			<point x="574" y="670"/>
			<point x="698" y="530"/>
			<point x="698" y="350" type="curve" smooth="yes"/>
			<point x="698" y="170"/>
			<point x="574" y="30"/>
		</contour>
	</outline>
</glyph>
<glyph name="R" format="2">
	<advance width="969"/>
	<unicode hex="0052"/>
	<outline>
		<contour>
			<point x="739" y="-10" type="curve" smooth="yes"/>
			<point x="802" y="-10"/>
			<point x="902" y="15"/>
			<point x="959" y="39" type="curve"/>
			<point x="946" y="71" type="line"/>
			<point x="901" y="59"/>
			<point x="860" y="55"/>
			<point x="813" y="55" type="curve" smooth="yes"/>
			<point x="674" y="55"/>
			<point x="562" y="212"/>
			<point x="507" y="330" type="curve"/>
			<point x="595" y="368"/>
			<point x="641" y="431"/>
			<point x="641" y="511" type="curve" smooth="yes"/>
			<point x="641" y="621"/>
			<point x="558" y="703"/>
			<point x="388" y="703" type="curve" smooth="yes"/>
			<point x="262" y="703"/>
			<point x="146" y="693"/>
			<point x="43" y="685" type="curve"/>
			<point x="42" y="651" type="line"/>
			<point x="135" y="651"/>
			<point x="144" y="653"/>
			<point x="145" y="612" type="curve" smooth="yes"/>
			<point x="149" y="453"/>
			<point x="156" y="246"/>
			<point x="145" y="91" type="curve" smooth="yes"/>
			<point x="142" y="50"/>
			<point x="125" y="43"/>
			<point x="30" y="30" type="curve"/>
			<point x="30" y="-3" type="line"/>
			<point x="124" y="2"/>
			<point x="304" y="3"/>
			<point x="403" y="-3" type="curve"/>
			<point x="403" y="32" type="line"/>
			<point x="266" y="41"/>
			<point x="257" y="41"/>
			<point x="255" y="91" type="curve" smooth="yes"/>
			<point x="253" y="136"/>
			<point x="253" y="211"/>
			<point x="254" y="292" type="curve"/>
			<point x="310" y="291"/>
			<point x="361" y="294"/>
			<point x="405" y="301" type="curve"/>
			<point x="505" y="115"/>
			<point x="615" y="-10"/>
		</contour>
		<contour>
			<point x="255" y="335" type="curve"/>
			<point x="257" y="463"/>
			<point x="262" y="599"/>
			<point x="266" y="662" type="curve"/>
			<point x="388" y="679"/>
			<point x="534" y="648"/>
			<point x="534" y="508" type="curve" smooth="yes"/>
			<point x="534" y="381"/>
			<point x="424" y="337"/>
		</contour>
	</outline>
</glyph>
<glyph name="S" format="2">
	<advance width="578"/>
	<unicode hex="0053"/>
	<outline>
		<contour>
			<point x="40" y="-5" type="line"/>
			<point x="311" y="0"/>
			<point x="548" y="4"/>
			<point x="548" y="176" type="curve" smooth="yes"/>
			<point x="548" y="289"/>
			<point x="453" y="336"/>
			<point x="311" y="403" type="curve" smooth="yes"/>
			<point x="180" y="465"/>
			<point x="140" y="503"/>
			<point x="140" y="553" type="curve" smooth="yes"/>
			<point x="140" y="612"/>
			<point x="194" y="663"/>
			<point x="296" y="663" type="curve" smooth="yes"/>
			<point x="403" y="663"/>
			<point x="463" y="633"/>
			<point x="466" y="596" type="curve" smooth="yes"/>
			<point x="472" y="518" type="line"/>
			<point x="502" y="515" type="line"/>
			<point x="534" y="700" type="line"/>
			<point x="324" y="700" type="line" smooth="yes"/>
			<point x="184" y="700"/>
			<point x="30" y="660"/>
			<point x="30" y="530" type="curve" smooth="yes"/>
			<point x="30" y="420"/>
			<point x="176" y="365"/>
			<point x="276" y="314" type="curve" smooth="yes"/>
			<point x="375" y="263"/>
			<point x="438" y="226"/>
			<point x="438" y="149" type="curve" smooth="yes"/>
			<point x="438" y="57"/>
			<point x="300" y="36"/>
			<point x="178" y="36" type="curve" smooth="yes"/>
			<point x="94" y="36"/>
			<point x="92" y="68"/>
			<point x="85" y="179" type="curve"/>
			<point x="61" y="179" type="line"/>
		</contour>
	</outline>
</glyph>
<glyph name="T" format="2">
	<advance width="856"/>
	<unicode hex="0054"/>
	<outline>
		<contour>
			<point x="251" y="28" type="curve"/>
			<point x="251" y="-5" type="line"/>
			<point x="341" y="2"/>
			<point x="544" y="3"/>
			<point x="621" y="-5" type="curve"/>
			<point x="621" y="30" type="line"/>
			<point x="493" y="44"/>
			<point x="493" y="44"/>
			<point x="491" y="89" type="curve"/>
			<point x="483" y="257"/>
			<point x="484" y="481"/>
			<point x="491" y="649" type="curve"/>
			<point x="593" y="649"/>
			<point x="698" y="648"/>
			<point x="795" y="646" type="curve"/>
			<point x="804" y="594" type="line"/>
			<point x="831" y="594" type="line"/>
			<point x="831" y="740" type="line"/>
			<point x="791" y="740" type="line"/>
			<point x="791" y="700"/>
			<point x="786" y="700"/>
			<point x="748" y="700" type="curve"/>
			<point x="171" y="701" type="line" smooth="yes"/>
			<point x="139" y="701"/>
			<point x="126" y="700"/>
			<point x="139" y="732" type="curve"/>
			<point x="109" y="737" type="line"/>
			<point x="0" y="571" type="line"/>
			<point x="29" y="554" type="line"/>
			<point x="71" y="605" type="line" smooth="yes"/>
			<point x="109" y="651"/>
			<point x="114" y="646"/>
			<point x="173" y="647" type="curve"/>
			<point x="236" y="648"/>
			<point x="305" y="649"/>
			<point x="376" y="649" type="curve"/>
			<point x="383" y="480"/>
			<point x="383" y="259"/>
			<point x="376" y="91" type="curve"/>
			<point x="374" y="45"/>
			<point x="374" y="45"/>
		</contour>
	</outline>
</glyph>
<glyph name="U" format="2">
	<advance width="827"/>
	<unicode hex="0055"/>
	<outline>
		<contour>
			<point x="415" y="-10" type="curve"/>
			<point x="415" y="-10" type="line"/>
			<point x="589" y="-10"/>
			<point x="712" y="75"/>
			<point x="712" y="260" type="curve"/>
			<point x="712" y="600" type="line" smooth="yes"/>
			<point x="713" y="659"/>
			<point x="734" y="658"/>
			<point x="807" y="668" type="curve"/>
			<point x="807" y="703" type="line"/>
			<point x="723" y="697"/>
			<point x="596" y="697"/>
			<point x="520" y="703" type="curve"/>
			<point x="520" y="666" type="line"/>
			<point x="609" y="662"/>
			<point x="650" y="658"/>
			<point x="652" y="600" type="curve"/>
			<point x="652" y="251" type="line" smooth="yes"/>
			<point x="652" y="90"/>
			<point x="542" y="41"/>
			<point x="439" y="41" type="curve"/>
			<point x="313" y="41"/>
			<point x="222" y="85"/>
			<point x="222" y="280" type="curve"/>
			<point x="222" y="600" type="line" smooth="yes"/>
			<point x="224" y="658"/>
			<point x="245" y="658"/>
			<point x="347" y="666" type="curve"/>
			<point x="347" y="703" type="line"/>
			<point x="251" y="697"/>
			<point x="124" y="697"/>
			<point x="20" y="703" type="curve"/>
			<point x="20" y="668" type="line"/>
			<point x="95" y="659"/>
			<point x="111" y="659"/>
			<point x="112" y="600" type="curve"/>
			<point x="112" y="260" type="line" smooth="yes"/>
			<point x="112" y="75"/>
			<point x="224" y="-10"/>
		</contour>
	</outline>
</glyph>
<glyph name="V" format="2">
	<advance width="867"/>
	<unicode hex="0056"/>
	<outline>
		<contour>
			<point x="434" y="-10" type="curve"/>
			<point x="434" y="-10" type="line"/>
			<point x="470" y="-10" type="line"/>
			<point x="488" y="41"/>
			<point x="510" y="92"/>
			<point x="529" y="127" type="curve"/>
			<point x="801" y="628" type="line" smooth="yes"/>
			<point x="815" y="653"/>
			<point x="821" y="662"/>
			<point x="857" y="668" type="curve"/>
			<point x="857" y="703" type="line"/>
			<point x="825" y="699"/>
			<point x="740" y="697"/>
			<point x="622" y="703" type="curve"/>
			<point x="622" y="668" type="line"/>
			<point x="748" y="661"/>
			<point x="741" y="654"/>
			<point x="725" y="623" type="curve"/>
			<point x="481" y="133" type="line"/>
			<point x="206" y="629" type="line" smooth="yes"/>
			<point x="190" y="658"/>
			<point x="188" y="666"/>
			<point x="310" y="668" type="curve"/>
			<point x="310" y="703" type="line"/>
			<point x="204" y="699"/>
			<point x="109" y="697"/>
			<point x="10" y="701" type="curve"/>
			<point x="10" y="666" type="line"/>
			<point x="57" y="660"/>
			<point x="76" y="653"/>
			<point x="111" y="591" type="curve"/>
			<point x="255" y="336"/>
			<point x="411" y="88"/>
		</contour>
	</outline>
</glyph>
<glyph name="W" format="2">
	<advance width="1141"/>
	<unicode hex="0057"/>
	<outline>
		<contour>
			<point x="379" y="-10" type="curve"/>
			<point x="379" y="-10" type="line"/>
			<point x="415" y="-10" type="line"/>
			<point x="431" y="41"/>
			<point x="447" y="90"/>
			<point x="463" y="127" type="curve"/>
			<point x="594" y="423" type="line"/>
			<point x="677" y="233"/>
			<point x="745" y="66"/>
			<point x="763" y="-10" type="curve"/>
			<point x="799" y="-10" type="line"/>
			<point x="815" y="41"/>
			<point x="831" y="90"/>
			<point x="847" y="127" type="curve"/>
			<point x="1059" y="628" type="line" smooth="yes"/>
			<point x="1070" y="653"/>
			<point x="1090" y="662"/>
			<point x="1126" y="668" type="curve"/>
			<point x="1126" y="703" type="line"/>
			<point x="1094" y="699"/>
			<point x="1000" y="697"/>
			<point x="891" y="703" type="curve"/>
			<point x="891" y="668" type="line"/>
			<point x="1008" y="661"/>
			<point x="992" y="654"/>
			<point x="972" y="600" type="curve"/>
			<point x="810" y="170" type="line"/>
			<point x="626" y="619" type="line" smooth="yes"/>
			<point x="611" y="656"/>
			<point x="609" y="666"/>
			<point x="709" y="668" type="curve"/>
			<point x="709" y="703" type="line"/>
			<point x="603" y="699"/>
			<point x="518" y="697"/>
			<point x="419" y="701" type="curve"/>
			<point x="419" y="666" type="line"/>
			<point x="466" y="660"/>
			<point x="491" y="656"/>
			<point x="520" y="591" type="curve"/>
			<point x="557" y="508" type="line"/>
			<point x="429" y="168" type="line"/>
			<point x="239" y="619" type="line" smooth="yes"/>
			<point x="223" y="656"/>
			<point x="223" y="666"/>
			<point x="315" y="668" type="curve"/>
			<point x="315" y="703" type="line"/>
			<point x="209" y="699"/>
			<point x="114" y="697"/>
			<point x="15" y="701" type="curve"/>
			<point x="15" y="666" type="line"/>
			<point x="62" y="660"/>
			<point x="91" y="655"/>
			<point x="122" y="591" type="curve"/>
			<point x="256" y="316"/>
			<point x="356" y="88"/>
		</contour>
	</outline>
</glyph>
<glyph name="Y" format="2">
	<advance width="879"/>
	<unicode hex="0059"/>
	<outline>
		<contour>
			<point x="317" y="-5" type="line"/>
			<point x="404" y="3"/>
			<point x="566" y="2"/>
			<point x="672" y="-5" type="curve"/>
			<point x="672" y="30" type="line"/>
			<point x="548" y="45"/>
			<point x="538" y="52"/>
			<point x="537" y="203" type="curve" smooth="yes"/>
			<point x="536" y="407"/>
			<point x="672" y="589"/>
			<point x="857" y="630" type="curve"/>
			<point x="874" y="701" type="line"/>
			<point x="869" y="710" type="line"/>
			<point x="731" y="709"/>
			<point x="575" y="535"/>
			<point x="522" y="364" type="curve"/>
			<point x="482" y="587"/>
			<point x="271" y="750"/>
			<point x="66" y="695" type="curve"/>
			<point x="-5" y="611" type="line"/>
			<point x="20" y="587" type="line"/>
			<point x="40" y="600"/>
			<point x="59" y="613"/>
			<point x="95" y="613" type="curve" smooth="yes"/>
			<point x="313" y="613"/>
			<point x="451" y="458"/>
			<point x="451" y="203" type="curve" smooth="yes"/>
			<point x="451" y="73"/>
			<point x="437" y="55"/>
			<point x="317" y="30" type="curve"/>
		</contour>
	</outline>
</glyph>
<glyph name="Z" format="2">
	<advance width="898"/>
	<unicode hex="005A"/>
	<outline>
		<contour>
			<point x="5" y="16" type="curve"/>
			<point x="25" y="-10" type="line"/>
			<point x="59" y="-4"/>
			<point x="78" y="0"/>
			<point x="133" y="0" type="curve"/>
			<point x="202" y="0"/>
			<point x="593" y="-4"/>
			<point x="754" y="-10" type="curve"/>
			<point x="893" y="245" type="line"/>
			<point x="859" y="258" type="line"/>
			<point x="754" y="77"/>
			<point x="693" y="45"/>
			<point x="481" y="45" type="curve"/>
			<point x="199" y="45" type="line"/>
			<point x="370" y="236"/>
			<point x="568" y="446"/>
			<point x="696" y="570" type="curve"/>
			<point x="727" y="600"/>
			<point x="755" y="625"/>
			<point x="821" y="630" type="curve"/>
			<point x="821" y="666" type="line"/>
			<point x="539" y="662"/>
			<point x="344" y="663"/>
			<point x="200" y="663" type="curve"/>
			<point x="180" y="663"/>
			<point x="173" y="666"/>
			<point x="180" y="705" type="curve"/>
			<point x="153" y="718" type="line"/>
			<point x="8" y="501" type="line"/>
			<point x="37" y="485" type="line"/>
			<point x="129" y="575"/>
			<point x="137" y="606"/>
			<point x="303" y="610" type="curve"/>
			<point x="609" y="617" type="line"/>
			<point x="463" y="458"/>
			<point x="160" y="131"/>
		</contour>
	</outline>
</glyph>
<glyph name="b" format="2">
	<advance width="491"/>
	<unicode hex="0062"/>
	<outline>
		<contour>
			<point x="182" y="-10" type="curve" smooth="yes"/>
			<point x="306" y="-10"/>
			<point x="461" y="87"/>
			<point x="461" y="245" type="curve" smooth="yes"/>
			<point x="461" y="387"/>
			<point x="343" y="442"/>
			<point x="295" y="442" type="curve" smooth="yes"/>
			<point x="271" y="442"/>
			<point x="205" y="425"/>
			<point x="139" y="406" type="curve"/>
			<point x="140" y="583"/>
			<point x="141" y="658"/>
			<point x="144" y="708" type="curve"/>
			<point x="10" y="700" type="line"/>
			<point x="10" y="670" type="line"/>
			<point x="43" y="658"/>
			<point x="55" y="651"/>
			<point x="55" y="608" type="curve" smooth="yes"/>
			<point x="55" y="459"/>
			<point x="53" y="130"/>
			<point x="54" y="31" type="curve"/>
			<point x="72" y="16"/>
			<point x="122" y="-10"/>
		</contour>
		<contour>
			<point x="255" y="53" type="curve" smooth="yes"/>
			<point x="169" y="53"/>
			<point x="139" y="81"/>
			<point x="139" y="319" type="curve" smooth="yes"/>
			<point x="139" y="374" type="line"/>
			<point x="264" y="391"/>
			<point x="377" y="353"/>
			<point x="377" y="207" type="curve" smooth="yes"/>
			<point x="377" y="125"/>
			<point x="331" y="53"/>
		</contour>
	</outline>
</glyph>
<glyph name="c" format="2">
	<advance width="367"/>
	<unicode hex="0063"/>
	<outline>
		<contour>
			<point x="176" y="-10" type="curve"/>
			<point x="176" y="-10" type="line"/>
			<point x="248" y="-10"/>
			<point x="317" y="41"/>
			<point x="350" y="72" type="curve"/>
			<point x="337" y="93" type="line"/>
			<point x="311" y="77"/>
			<point x="272" y="65"/>
			<point x="226" y="65" type="curve"/>
			<point x="146" y="65"/>
			<point x="107" y="137"/>
			<point x="107" y="217" type="curve"/>
			<point x="107" y="296"/>
			<point x="133" y="338"/>
			<point x="154" y="361" type="curve"/>
			<point x="197" y="364"/>
			<point x="240" y="360"/>
			<point x="283" y="348" type="curve"/>
			<point x="357" y="406" type="line"/>
			<point x="357" y="423" type="line"/>
			<point x="303" y="433"/>
			<point x="270" y="440"/>
			<point x="233" y="440" type="curve"/>
			<point x="199" y="440"/>
			<point x="133" y="396"/>
			<point x="116" y="381" type="curve"/>
			<point x="76" y="346"/>
			<point x="30" y="270"/>
			<point x="30" y="172" type="curve"/>
			<point x="30" y="62"/>
			<point x="76" y="-10"/>
		</contour>
	</outline>
</glyph>
<glyph name="d" format="2">
	<advance width="460"/>
	<unicode hex="0064"/>
	<outline>
		<contour>
			<point x="323" y="-12" type="line"/>
			<point x="450" y="35" type="line"/>
			<point x="448" y="61" type="line"/>
			<point x="412" y="77"/>
			<point x="400" y="92"/>
			<point x="397" y="186" type="curve" smooth="yes"/>
			<point x="388" y="474"/>
			<point x="405" y="710"/>
			<point x="405" y="710" type="curve"/>
			<point x="352" y="704"/>
			<point x="281" y="700"/>
			<point x="204" y="700" type="curve"/>
			<point x="204" y="669" type="line"/>
			<point x="276" y="669"/>
			<point x="299" y="649"/>
			<point x="301" y="594" type="curve" smooth="yes"/>
			<point x="307" y="430" type="line"/>
			<point x="283" y="433"/>
			<point x="254" y="435"/>
			<point x="225" y="435" type="curve" smooth="yes"/>
			<point x="137" y="435"/>
			<point x="30" y="316"/>
			<point x="30" y="176" type="curve" smooth="yes"/>
			<point x="30" y="76"/>
			<point x="104" y="-10"/>
			<point x="204" y="-10" type="curve"/>
			<point x="229" y="9"/>
			<point x="266" y="34"/>
			<point x="312" y="77" type="curve"/>
			<point x="319" y="-8" type="line"/>
		</contour>
		<contour>
			<point x="312" y="102" type="curve"/>
			<point x="205" y="46"/>
			<point x="91" y="99"/>
			<point x="91" y="228" type="curve" smooth="yes"/>
			<point x="91" y="317"/>
			<point x="145" y="369"/>
			<point x="210" y="369" type="curve" smooth="yes"/>
			<point x="249" y="369"/>
			<point x="280" y="362"/>
			<point x="309" y="341" type="curve"/>
			<point x="311" y="258"/>
			<point x="312" y="175"/>
		</contour>
	</outline>
</glyph>
<glyph name="e" format="2">
	<advance width="422"/>
	<unicode hex="0065"/>
	<outline>
		<contour>
			<point x="185" y="-10" type="curve"/>
			<point x="185" y="-10" type="line"/>
			<point x="255" y="-10"/>
			<point x="356" y="54"/>
			<point x="395" y="92" type="curve"/>
			<point x="380" y="115" type="line"/>
			<point x="339" y="89"/>
			<point x="281" y="65"/>
			<point x="235" y="65" type="curve"/>
			<point x="165" y="65"/>
			<point x="113" y="118"/>
			<point x="113" y="228" type="curve"/>
			<point x="113" y="247" type="line"/>
			<point x="407" y="289" type="line"/>
			<point x="404" y="315" type="line"/>
			<point x="382" y="314"/>
			<point x="377" y="312"/>
			<point x="362" y="337" type="curve"/>
			<point x="332" y="387"/>
			<point x="291" y="440"/>
			<point x="227" y="440" type="curve"/>
			<point x="193" y="440"/>
			<point x="101" y="401"/>
			<point x="78" y="373" type="curve"/>
			<point x="46" y="334"/>
			<point x="30" y="268"/>
			<point x="30" y="202" type="curve"/>
			<point x="30" y="102"/>
			<point x="65" y="-10"/>
		</contour>
		<contour>
			<point x="270" y="298" type="curve"/>
			<point x="116" y="277" type="line"/>
			<point x="125" y="341"/>
			<point x="152" y="379"/>
			<point x="184" y="379" type="curve"/>
			<point x="212" y="379"/>
			<point x="250" y="352"/>
		</contour>
	</outline>
</glyph>
<glyph name="f" format="2">
	<advance width="351"/>
	<unicode hex="0066"/>
	<outline>
		<contour>
			<point x="25" y="28" type="curve"/>
			<point x="25" y="-2" type="line"/>
			<point x="105" y="2"/>
			<point x="175" y="2"/>
			<point x="240" y="-2" type="curve"/>
			<point x="240" y="33" type="line"/>
			<point x="165" y="38"/>
			<point x="164" y="41"/>
			<point x="164" y="73" type="curve"/>
			<point x="161" y="336" type="line"/>
			<point x="218" y="336"/>
			<point x="275" y="334"/>
			<point x="332" y="330" type="curve"/>
			<point x="345" y="414" type="line"/>
			<point x="330" y="417" type="line"/>
			<point x="319" y="405"/>
			<point x="245" y="396"/>
			<point x="161" y="393" type="curve"/>
			<point x="159" y="568" type="line" smooth="yes"/>
			<point x="158" y="629"/>
			<point x="188" y="658"/>
			<point x="227" y="658" type="curve"/>
			<point x="267" y="658"/>
			<point x="305" y="620"/>
			<point x="329" y="550" type="curve"/>
			<point x="350" y="550" type="line"/>
			<point x="366" y="658" type="line"/>
			<point x="345" y="688"/>
			<point x="305" y="712"/>
			<point x="245" y="712" type="curve"/>
			<point x="181" y="712"/>
			<point x="130" y="653"/>
			<point x="87" y="606" type="curve"/>
			<point x="76" y="568"/>
			<point x="81" y="517"/>
			<point x="81" y="484" type="curve"/>
			<point x="81" y="412"/>
			<point x="65" y="380"/>
			<point x="38" y="343" type="curve"/>
			<point x="38" y="330" type="line"/>
			<point x="72" y="315"/>
			<point x="78" y="292"/>
			<point x="78" y="263" type="curve"/>
			<point x="78" y="100" type="line" smooth="yes"/>
			<point x="77" y="43"/>
			<point x="67" y="38"/>
		</contour>
	</outline>
</glyph>
<glyph name="g" format="2">
	<advance width="516"/>
	<unicode hex="0067"/>
	<outline>
		<contour>
			<point x="274" y="-310" type="curve"/>
			<point x="274" y="-310" type="line"/>
			<point x="413" y="-310"/>
			<point x="516" y="-266"/>
			<point x="516" y="-139" type="curve"/>
			<point x="516" y="-64"/>
			<point x="437" y="10"/>
			<point x="368" y="10" type="curve"/>
			<point x="323" y="10"/>
			<point x="266" y="0"/>
			<point x="217" y="0" type="curve"/>
			<point x="180" y="0"/>
			<point x="151" y="13"/>
			<point x="151" y="26" type="curve"/>
			<point x="151" y="55"/>
			<point x="207" y="89"/>
			<point x="274" y="105" type="curve"/>
			<point x="341" y="121"/>
			<point x="404" y="177"/>
			<point x="404" y="262" type="curve"/>
			<point x="404" y="312"/>
			<point x="381" y="358"/>
			<point x="359" y="382" type="curve"/>
			<point x="414" y="382"/>
			<point x="466" y="379"/>
			<point x="501" y="374" type="curve"/>
			<point x="501" y="438" type="line"/>
			<point x="385" y="430"/>
			<point x="336" y="442"/>
			<point x="232" y="442" type="curve"/>
			<point x="116" y="442"/>
			<point x="32" y="364"/>
			<point x="32" y="258" type="curve"/>
			<point x="32" y="161"/>
			<point x="92" y="113"/>
			<point x="168" y="97" type="curve"/>
			<point x="148" y="71"/>
			<point x="96" y="48"/>
			<point x="77" y="30" type="curve"/>
			<point x="77" y="9"/>
			<point x="102" y="-40"/>
			<point x="148" y="-62" type="curve"/>
			<point x="110" y="-79"/>
			<point x="30" y="-131"/>
			<point x="30" y="-177" type="curve"/>
			<point x="30" y="-262"/>
			<point x="158" y="-310"/>
		</contour>
		<contour>
			<point x="274" y="-247" type="curve"/>
			<point x="274" y="-247" type="line"/>
			<point x="178" y="-247"/>
			<point x="109" y="-213"/>
			<point x="109" y="-156" type="curve"/>
			<point x="109" y="-120"/>
			<point x="151" y="-82"/>
			<point x="241" y="-66" type="curve"/>
			<point x="277" y="-66" type="line" smooth="yes"/>
			<point x="400" y="-66"/>
			<point x="468" y="-85"/>
			<point x="468" y="-152" type="curve"/>
			<point x="468" y="-226"/>
			<point x="360" y="-247"/>
		</contour>
		<contour>
			<point x="236" y="140" type="curve"/>
			<point x="236" y="140" type="line"/>
			<point x="185" y="140"/>
			<point x="119" y="197"/>
			<point x="119" y="282" type="curve"/>
			<point x="119" y="325"/>
			<point x="151" y="377"/>
			<point x="204" y="377" type="curve"/>
			<point x="274" y="377"/>
			<point x="318" y="297"/>
			<point x="318" y="234" type="curve"/>
			<point x="318" y="180"/>
			<point x="291" y="140"/>
		</contour>
	</outline>
</glyph>
<glyph name="h" format="2">
	<advance width="514"/>
	<unicode hex="0068"/>
	<outline>
		<contour>
			<point x="293" y="-10" type="line"/>
			<point x="423" y="53"/>
			<point x="484" y="142"/>
			<point x="484" y="231" type="curve" smooth="yes"/>
			<point x="484" y="339"/>
			<point x="413" y="430"/>
			<point x="322" y="440" type="curve"/>
			<point x="148" y="380" type="line"/>
			<point x="149" y="468"/>
			<point x="152" y="554"/>
			<point x="155" y="636" type="curve" smooth="yes"/>
			<point x="156" y="671"/>
			<point x="158" y="683"/>
			<point x="227" y="700" type="curve"/>
			<point x="221" y="740" type="line"/>
			<point x="152" y="724"/>
			<point x="84" y="712"/>
			<point x="15" y="700" type="curve"/>
			<point x="15" y="665" type="line"/>
			<point x="49" y="665"/>
			<point x="56" y="649"/>
			<point x="58" y="573" type="curve" smooth="yes"/>
			<point x="60" y="511"/>
			<point x="72" y="322"/>
			<point x="61" y="93" type="curve" smooth="yes"/>
			<point x="59" y="53"/>
			<point x="56" y="45"/>
			<point x="23" y="32" type="curve"/>
			<point x="23" y="-3" type="line"/>
			<point x="71" y="5"/>
			<point x="165" y="2"/>
			<point x="198" y="-3" type="curve"/>
			<point x="198" y="33" type="line"/>
			<point x="167" y="40"/>
			<point x="156" y="44"/>
			<point x="155" y="61" type="curve" smooth="yes"/>
			<point x="149" y="159"/>
			<point x="147" y="257"/>
			<point x="148" y="352" type="curve"/>
			<point x="293" y="386"/>
			<point x="408" y="317"/>
			<point x="408" y="198" type="curve" smooth="yes"/>
			<point x="408" y="121"/>
			<point x="358" y="64"/>
			<point x="275" y="14" type="curve"/>
		</contour>
	</outline>
</glyph>
<glyph name="i" format="2">
	<advance width="252"/>
	<unicode hex="0069"/>
	<outline>
		<contour>
			<point x="138" y="-10" type="curve"/>
			<point x="138" y="-10" type="line"/>
			<point x="242" y="35" type="line"/>
			<point x="235" y="65" type="line"/>
			<point x="179" y="65"/>
			<point x="166" y="75"/>
			<point x="165" y="160" type="curve"/>
			<point x="164" y="235"/>
			<point x="160" y="390"/>
			<point x="188" y="423" type="curve"/>
			<point x="179" y="444" type="line"/>
			<point x="131" y="428"/>
			<point x="78" y="413"/>
			<point x="20" y="398" type="curve"/>
			<point x="27" y="363" type="line"/>
			<point x="60" y="366"/>
			<point x="81" y="367"/>
			<point x="81" y="304" type="curve"/>
			<point x="81" y="254"/>
			<point x="75" y="160"/>
			<point x="75" y="80" type="curve"/>
			<point x="75" y="40"/>
			<point x="108" y="-10"/>
		</contour>
	</outline>
</glyph>
<glyph name="j" format="2">
	<advance width="198"/>
	<unicode hex="006A"/>
	<outline>
		<contour>
			<point x="39" y="-238" type="line"/>
			<point x="72" y="-191"/>
			<point x="151" y="-5"/>
			<point x="150" y="70" type="curve" smooth="yes"/>
			<point x="149" y="145"/>
			<point x="145" y="390"/>
			<point x="173" y="423" type="curve"/>
			<point x="164" y="444" type="line"/>
			<point x="116" y="428"/>
			<point x="63" y="413"/>
			<point x="5" y="398" type="curve"/>
			<point x="12" y="363" type="line"/>
			<point x="45" y="366"/>
			<point x="67" y="367"/>
			<point x="66" y="304" type="curve" smooth="yes"/>
			<point x="65" y="226"/>
			<point x="65" y="128"/>
			<point x="66" y="50" type="curve" smooth="yes"/>
			<point x="67" y="-62"/>
			<point x="37" y="-152"/>
			<point x="7" y="-219" type="curve"/>
		</contour>
	</outline>
</glyph>
<glyph name="k" format="2">
	<advance width="619"/>
	<unicode hex="006B"/>
	<outline>
		<contour>
			<point x="35" y="32" type="curve"/>
			<point x="35" y="-3" type="line"/>
			<point x="95" y="1"/>
			<point x="145" y="2"/>
			<point x="215" y="-3" type="curve"/>
			<point x="215" y="32" type="line"/>
			<point x="176" y="43"/>
			<point x="168" y="58"/>
			<point x="168" y="107" type="curve"/>
			<point x="168" y="195" type="line"/>
			<point x="311" y="34"/>
			<point x="378" y="12"/>
			<point x="616" y="0" type="curve"/>
			<point x="619" y="28" type="line"/>
			<point x="487" y="41"/>
			<point x="318" y="133"/>
			<point x="251" y="223" type="curve"/>
			<point x="407" y="349" type="line" smooth="yes"/>
			<point x="449" y="383"/>
			<point x="485" y="391"/>
			<point x="574" y="396" type="curve"/>
			<point x="574" y="431" type="line"/>
			<point x="281" y="427" type="line"/>
			<point x="281" y="392" type="line"/>
			<point x="344" y="392" type="line"/>
			<point x="168" y="235" type="line"/>
			<point x="168" y="579" type="line" smooth="yes"/>
			<point x="168" y="650"/>
			<point x="176" y="652"/>
			<point x="265" y="668" type="curve"/>
			<point x="265" y="703" type="line"/>
			<point x="185" y="699"/>
			<point x="82" y="700"/>
			<point x="38" y="702" type="curve"/>
			<point x="38" y="667" type="line"/>
			<point x="77" y="652"/>
			<point x="77" y="652"/>
			<point x="79" y="489" type="curve"/>
			<point x="81" y="334"/>
			<point x="76" y="201"/>
			<point x="74" y="107" type="curve"/>
			<point x="73" y="63"/>
			<point x="70" y="43"/>
		</contour>
	</outline>
</glyph>
<glyph name="l" format="2">
	<advance width="242"/>
	<unicode hex="006C"/>
	<outline>
		<contour>
			<point x="124" y="-10" type="curve"/>
			<point x="124" y="-10" type="line"/>
			<point x="232" y="35" type="line"/>
			<point x="225" y="65" type="line"/>
			<point x="169" y="65"/>
			<point x="152" y="75"/>
			<point x="149" y="160" type="curve"/>
			<point x="146" y="234"/>
			<point x="151" y="528"/>
			<point x="154" y="630" type="curve"/>
			<point x="155" y="663"/>
			<point x="163" y="667"/>
			<point x="211" y="675" type="curve"/>
			<point x="206" y="710" type="line"/>
			<point x="15" y="685" type="line"/>
			<point x="20" y="650" type="line"/>
			<point x="66" y="655"/>
			<point x="65" y="655"/>
			<point x="67" y="568" type="curve"/>
			<point x="69" y="471"/>
			<point x="60" y="145"/>
			<point x="57" y="75" type="curve"/>
			<point x="55" y="25"/>
			<point x="97" y="-10"/>
		</contour>
	</outline>
</glyph>
<glyph name="n" format="2">
	<advance width="529"/>
	<unicode hex="006E"/>
	<outline>
		<contour>
			<point x="345" y="-6" type="line"/>
			<point x="396" y="6"/>
			<point x="434" y="4"/>
			<point x="504" y="0" type="curve"/>
			<point x="504" y="35" type="line"/>
			<point x="475" y="41"/>
			<point x="451" y="49"/>
			<point x="447" y="76" type="curve" smooth="yes"/>
			<point x="440" y="115"/>
			<point x="454" y="215"/>
			<point x="454" y="298" type="curve" smooth="yes"/>
			<point x="454" y="378"/>
			<point x="429" y="440"/>
			<point x="359" y="440" type="curve" smooth="yes"/>
			<point x="292" y="440"/>
			<point x="225" y="395"/>
			<point x="169" y="369" type="curve"/>
			<point x="159" y="398"/>
			<point x="137" y="433"/>
			<point x="87" y="440" type="curve"/>
			<point x="25" y="387" type="line"/>
			<point x="25" y="365" type="line"/>
			<point x="70" y="348"/>
			<point x="86" y="337"/>
			<point x="87" y="276" type="curve" smooth="yes"/>
			<point x="89" y="170"/>
			<point x="84" y="81"/>
			<point x="75" y="0" type="curve"/>
			<point x="175" y="0" type="line"/>
			<point x="170" y="87"/>
			<point x="171" y="86"/>
			<point x="172" y="313" type="curve"/>
			<point x="192" y="346"/>
			<point x="232" y="365"/>
			<point x="271" y="365" type="curve" smooth="yes"/>
			<point x="341" y="365"/>
			<point x="374" y="312"/>
			<point x="374" y="218" type="curve" smooth="yes"/>
			<point x="374" y="147"/>
			<point x="371" y="92"/>
			<point x="341" y="9" type="curve"/>
		</contour>
	</outline>
</glyph>
<glyph name="o" format="2">
	<advance width="482"/>
	<unicode hex="006F"/>
	<outline>
		<contour>
			<point x="234" y="-10" type="curve"/>
			<point x="234" y="-10" type="line"/>
			<point x="354" y="-10"/>
			<point x="452" y="94"/>
			<point x="452" y="224" type="curve"/>
			<point x="452" y="345"/>
			<point x="382" y="440"/>
			<point x="251" y="440" type="curve"/>
			<point x="131" y="440"/>
			<point x="30" y="334"/>
			<point x="30" y="204" type="curve"/>
			<point x="30" y="94"/>
			<point x="104" y="-10"/>
		</contour>
		<contour>
			<point x="261" y="56" type="curve"/>
			<point x="261" y="56" type="line"/>
			<point x="181" y="56"/>
			<point x="101" y="137"/>
			<point x="101" y="242" type="curve"/>
			<point x="101" y="319"/>
			<point x="153" y="372"/>
			<point x="223" y="372" type="curve"/>
			<point x="297" y="372"/>
			<point x="384" y="294"/>
			<point x="384" y="194" type="curve"/>
			<point x="384" y="110"/>
			<point x="337" y="56"/>
		</contour>
	</outline>
</glyph>
<glyph name="p" format="2">
	<advance width="521"/>
	<unicode hex="0070"/>
	<outline>
		<contour>
			<point x="25" y="-304" type="line"/>
			<point x="97" y="-300"/>
			<point x="184" y="-300"/>
			<point x="226" y="-304" type="curve"/>
			<point x="226" y="-274" type="line"/>
			<point x="174" y="-256"/>
			<point x="162" y="-255"/>
			<point x="162" y="-204" type="curve" smooth="yes"/>
			<point x="162" y="-166"/>
			<point x="161" y="-89"/>
			<point x="160" y="2" type="curve"/>
			<point x="190" y="-6"/>
			<point x="224" y="-9"/>
			<point x="258" y="-9" type="curve" smooth="yes"/>
			<point x="409" y="-9"/>
			<point x="491" y="119"/>
			<point x="491" y="235" type="curve" smooth="yes"/>
			<point x="491" y="345"/>
			<point x="438" y="440"/>
			<point x="339" y="440" type="curve" smooth="yes"/>
			<point x="296" y="440"/>
			<point x="223" y="407"/>
			<point x="162" y="385" type="curve"/>
			<point x="163" y="441" type="line"/>
			<point x="149" y="452" type="line"/>
			<point x="109" y="443"/>
			<point x="73" y="438"/>
			<point x="31" y="430" type="curve"/>
			<point x="31" y="395" type="line"/>
			<point x="60" y="387"/>
			<point x="71" y="376"/>
			<point x="75" y="319" type="curve" smooth="yes"/>
			<point x="83" y="206"/>
			<point x="69" y="-175"/>
			<point x="67" y="-218" type="curve" smooth="yes"/>
			<point x="66" y="-251"/>
			<point x="55" y="-258"/>
			<point x="25" y="-269" type="curve"/>
		</contour>
		<contour>
			<point x="286" y="40" type="curve" smooth="yes"/>
			<point x="220" y="40"/>
			<point x="188" y="64"/>
			<point x="160" y="95" type="curve"/>
			<point x="159" y="182"/>
			<point x="159" y="274"/>
			<point x="161" y="350" type="curve"/>
			<point x="188" y="361"/>
			<point x="224" y="370"/>
			<point x="258" y="370" type="curve" smooth="yes"/>
			<point x="327" y="370"/>
			<point x="410" y="303"/>
			<point x="410" y="186" type="curve" smooth="yes"/>
			<point x="410" y="114"/>
			<point x="377" y="40"/>
		</contour>
	</outline>
</glyph>
<glyph name="q" format="2">
	<advance width="552"/>
	<unicode hex="0071"/>
	<outline>
		<contour>
			<point x="334" y="-303" type="line"/>
			<point x="376" y="-300"/>
			<point x="475" y="-299"/>
			<point x="537" y="-303" type="curve"/>
			<point x="537" y="-268" type="line"/>
			<point x="490" y="-262"/>
			<point x="487" y="-261"/>
			<point x="484" y="-213" type="curve" smooth="yes"/>
			<point x="479" y="-122"/>
			<point x="475" y="62"/>
			<point x="477" y="244" type="curve" smooth="yes"/>
			<point x="478" y="363"/>
			<point x="490" y="383"/>
			<point x="502" y="430" type="curve"/>
			<point x="494" y="440" type="line"/>
			<point x="468" y="434"/>
			<point x="447" y="432"/>
			<point x="417" y="432" type="curve" smooth="yes"/>
			<point x="371" y="432"/>
			<point x="328" y="441"/>
			<point x="266" y="441" type="curve" smooth="yes"/>
			<point x="136" y="441"/>
			<point x="30" y="347"/>
			<point x="30" y="197" type="curve" smooth="yes"/>
			<point x="30" y="97"/>
			<point x="83" y="-10"/>
			<point x="223" y="-10" type="curve" smooth="yes"/>
			<point x="294" y="-10"/>
			<point x="346" y="28"/>
			<point x="390" y="50" type="curve"/>
			<point x="391" y="-112"/>
			<point x="388" y="-204"/>
			<point x="386" y="-225" type="curve" smooth="yes"/>
			<point x="383" y="-256"/>
			<point x="381" y="-264"/>
			<point x="334" y="-268" type="curve"/>
		</contour>
		<contour>
			<point x="270" y="56" type="curve" smooth="yes"/>
			<point x="178" y="56"/>
			<point x="116" y="122"/>
			<point x="116" y="230" type="curve" smooth="yes"/>
			<point x="116" y="326"/>
			<point x="171" y="392"/>
			<point x="257" y="392" type="curve" smooth="yes"/>
			<point x="347" y="392"/>
			<point x="387" y="336"/>
			<point x="388" y="234" type="curve" smooth="yes"/>
			<point x="390" y="129" type="line"/>
			<point x="390" y="92" type="line"/>
			<point x="367" y="77"/>
			<point x="322" y="56"/>
		</contour>
	</outline>
</glyph>
<glyph name="r" format="2">
	<advance width="412"/>
	<unicode hex="0072"/>
	<outline>
		<contour>
			<point x="67" y="0" type="line"/>
			<point x="136" y="4"/>
			<point x="194" y="4"/>
			<point x="253" y="0" type="curve"/>
			<point x="253" y="35" type="line"/>
			<point x="201" y="41"/>
			<point x="201" y="47"/>
			<point x="201" y="118" type="curve" smooth="yes"/>
			<point x="202" y="304" type="line"/>
			<point x="254" y="325"/>
			<point x="280" y="319"/>
			<point x="330" y="296" type="curve"/>
			<point x="407" y="384" type="line"/>
			<point x="404" y="396" type="line"/>
			<point x="362" y="401"/>
			<point x="334" y="421"/>
			<point x="304" y="440" type="curve"/>
			<point x="276" y="404"/>
			<point x="238" y="364"/>
			<point x="201" y="338" type="curve"/>
			<point x="146" y="440" type="line"/>
			<point x="118" y="425"/>
			<point x="63" y="395"/>
			<point x="25" y="370" type="curve"/>
			<point x="33" y="347" type="line"/>
			<point x="95" y="351"/>
			<point x="118" y="314"/>
			<point x="118" y="232" type="curve" smooth="yes"/>
			<point x="118" y="120" type="line" smooth="yes"/>
			<point x="115" y="42"/>
			<point x="112" y="42"/>
			<point x="67" y="35" type="curve"/>
		</contour>
	</outline>
</glyph>
<glyph name="t" format="2">
	<advance width="354"/>
	<unicode hex="0074"/>
	<outline>
		<contour>
			<point x="164" y="-10" type="curve" smooth="yes"/>
			<point x="215" y="-10"/>
			<point x="302" y="30"/>
			<point x="349" y="63" type="curve"/>
			<point x="341" y="81" type="line"/>
			<point x="303" y="70"/>
			<point x="255" y="65"/>
			<point x="219" y="65" type="curve" smooth="yes"/>
			<point x="169" y="65"/>
			<point x="147" y="97"/>
			<point x="147" y="161" type="curve" smooth="yes"/>
			<point x="147" y="254"/>
			<point x="150" y="319"/>
			<point x="155" y="366" type="curve"/>
			<point x="217" y="369"/>
			<point x="281" y="368"/>
			<point x="347" y="365" type="curve"/>
			<point x="348" y="429" type="line"/>
			<point x="164" y="429" type="line"/>
			<point x="168" y="448"/>
			<point x="172" y="463"/>
			<point x="176" y="475" type="curve"/>
			<point x="159" y="483" type="line"/>
			<point x="128" y="460"/>
			<point x="86" y="427"/>
			<point x="81" y="427" type="curve" smooth="yes"/>
			<point x="46" y="424" type="line"/>
			<point x="45" y="421" type="line"/>
			<point x="68" y="357" type="line"/>
			<point x="67" y="308"/>
			<point x="65" y="198"/>
			<point x="65" y="112" type="curve" smooth="yes"/>
			<point x="65" y="17"/>
			<point x="88" y="-10"/>
		</contour>
	</outline>
</glyph>
<glyph name="v" format="2">
	<advance width="560"/>
	<unicode hex="0076"/>
	<outline>
		<contour>
			<point x="88" y="323" type="curve"/>
			<point x="260" y="-5" type="line"/>
			<point x="299" y="-5" type="line"/>
			<point x="313" y="37"/>
			<point x="329" y="65"/>
			<point x="362" y="127" type="curve"/>
			<point x="446" y="286"/>
			<point x="477" y="380"/>
			<point x="555" y="399" type="curve"/>
			<point x="555" y="433" type="line"/>
			<point x="487" y="429"/>
			<point x="428" y="429"/>
			<point x="378" y="433" type="curve"/>
			<point x="378" y="398" type="line"/>
			<point x="418" y="389"/>
			<point x="429" y="375"/>
			<point x="398" y="308" type="curve"/>
			<point x="302" y="99" type="line"/>
			<point x="188" y="325" type="line" smooth="yes"/>
			<point x="176" y="349"/>
			<point x="155" y="393"/>
			<point x="238" y="399" type="curve"/>
			<point x="238" y="433" type="line"/>
			<point x="147" y="430"/>
			<point x="80" y="429"/>
			<point x="5" y="433" type="curve"/>
			<point x="5" y="399" type="line"/>
			<point x="47" y="393"/>
			<point x="61" y="374"/>
		</contour>
	</outline>
</glyph>
<glyph name="w" format="2">
	<advance width="803"/>
	<unicode hex="0077"/>
	<outline>
		<contour>
			<point x="88" y="323" type="curve"/>
			<point x="245" y="-5" type="line"/>
			<point x="284" y="-5" type="line"/>
			<point x="298" y="37"/>
			<point x="308" y="63"/>
			<point x="340" y="127" type="curve"/>
			<point x="364" y="175"/>
			<point x="384" y="218"/>
			<point x="403" y="255" type="curve"/>
			<point x="511" y="-5" type="line"/>
			<point x="550" y="-5" type="line"/>
			<point x="564" y="37"/>
			<point x="577" y="64"/>
			<point x="609" y="128" type="curve"/>
			<point x="701" y="313"/>
			<point x="720" y="380"/>
			<point x="798" y="399" type="curve"/>
			<point x="798" y="433" type="line"/>
			<point x="730" y="429"/>
			<point x="681" y="429"/>
			<point x="631" y="433" type="curve"/>
			<point x="631" y="398" type="line"/>
			<point x="671" y="389"/>
			<point x="681" y="376"/>
			<point x="650" y="308" type="curve"/>
			<point x="555" y="101" type="line"/>
			<point x="455" y="342" type="line"/>
			<point x="479" y="375"/>
			<point x="505" y="395"/>
			<point x="537" y="399" type="curve"/>
			<point x="537" y="433" type="line"/>
			<point x="479" y="429"/>
			<point x="424" y="429"/>
			<point x="364" y="433" type="curve"/>
			<point x="364" y="398" type="line"/>
			<point x="414" y="389"/>
			<point x="420" y="378"/>
			<point x="386" y="308" type="curve"/>
			<point x="285" y="98" type="line"/>
			<point x="184" y="325" type="line" smooth="yes"/>
			<point x="173" y="349"/>
			<point x="155" y="393"/>
			<point x="238" y="399" type="curve"/>
			<point x="238" y="433" type="line"/>
			<point x="147" y="430"/>
			<point x="80" y="429"/>
			<point x="5" y="433" type="curve"/>
			<point x="5" y="399" type="line"/>
			<point x="47" y="393"/>
			<point x="63" y="375"/>
		</contour>
	</outline>
</glyph>
<glyph name="x" format="2">
	<advance width="572"/>
	<unicode hex="0078"/>
	<outline>
		<contour>
			<point x="64" y="-10" type="curve"/>
			<point x="64" y="-10" type="line"/>
			<point x="126" y="-10"/>
			<point x="208" y="69"/>
			<point x="274" y="143" type="curve"/>
			<point x="337" y="58"/>
			<point x="400" y="-10"/>
			<point x="424" y="-10" type="curve"/>
			<point x="444" y="-10"/>
			<point x="538" y="14"/>
			<point x="567" y="35" type="curve"/>
			<point x="555" y="62" type="line"/>
			<point x="536" y="56"/>
			<point x="530" y="52"/>
			<point x="510" y="52" type="curve"/>
			<point x="447" y="52"/>
			<point x="400" y="122"/>
			<point x="332" y="220" type="curve"/>
			<point x="387" y="296" type="line" smooth="yes"/>
			<point x="446" y="377"/>
			<point x="446" y="386"/>
			<point x="543" y="397" type="curve"/>
			<point x="561" y="399" type="line"/>
			<point x="561" y="433" type="line"/>
			<point x="490" y="428"/>
			<point x="418" y="429"/>
			<point x="375" y="433" type="curve"/>
			<point x="368" y="413" type="line"/>
			<point x="379" y="392"/>
			<point x="372" y="352"/>
			<point x="338" y="303" type="curve"/>
			<point x="306" y="257" type="line"/>
			<point x="255" y="329"/>
			<point x="198" y="426"/>
			<point x="167" y="430" type="curve"/>
			<point x="133" y="434"/>
			<point x="46" y="411"/>
			<point x="5" y="399" type="curve"/>
			<point x="11" y="365" type="line"/>
			<point x="29" y="369"/>
			<point x="51" y="371"/>
			<point x="64" y="371" type="curve"/>
			<point x="133" y="371"/>
			<point x="182" y="272"/>
			<point x="246" y="181" type="curve"/>
			<point x="247" y="179"/>
			<point x="249" y="177"/>
			<point x="250" y="176" type="curve"/>
			<point x="195" y="109"/>
			<point x="140" y="65"/>
			<point x="91" y="65" type="curve"/>
			<point x="62" y="65"/>
			<point x="47" y="71"/>
			<point x="32" y="95" type="curve"/>
			<point x="13" y="90" type="line"/>
			<point x="5" y="2" type="line"/>
			<point x="19" y="-6"/>
			<point x="35" y="-10"/>
		</contour>
	</outline>
</glyph>
<glyph name="y" format="2">
	<advance width="521"/>
	<unicode hex="0079"/>
	<outline>
		<contour>
			<point x="73" y="-217" type="line"/>
			<point x="313" y="141" type="line" smooth="yes"/>
			<point x="437" y="327"/>
			<point x="487" y="389"/>
			<point x="516" y="398" type="curve"/>
			<point x="516" y="433" type="line"/>
			<point x="468" y="429"/>
			<point x="361" y="429"/>
			<point x="283" y="433" type="curve"/>
			<point x="283" y="399" type="line"/>
			<point x="344" y="394"/>
			<point x="366" y="378"/>
			<point x="350" y="351" type="curve" smooth="yes"/>
			<point x="207" y="101" type="line"/>
			<point x="127" y="335" type="line" smooth="yes"/>
			<point x="113" y="376"/>
			<point x="119" y="392"/>
			<point x="181" y="398" type="curve"/>
			<point x="181" y="433" type="line"/>
			<point x="126" y="429"/>
			<point x="70" y="428"/>
			<point x="5" y="433" type="curve"/>
			<point x="5" y="398" type="line"/>
			<point x="41" y="388"/>
			<point x="48" y="382"/>
			<point x="78" y="308" type="curve" smooth="yes"/>
			<point x="180" y="56" type="line"/>
			<point x="40" y="-197" type="line"/>
		</contour>
	</outline>
</glyph>
<glyph name="z" format="2">
	<advance width="549"/>
	<unicode hex="007A"/>
	<outline>
		<contour>
			<point x="20" y="32" type="line"/>
			<point x="20" y="-3" type="line"/>
			<point x="137" y="2"/>
			<point x="314" y="3"/>
			<point x="437" y="-3" type="curve"/>
			<point x="536" y="105" type="line"/>
			<point x="518" y="120" type="line"/>
			<point x="435" y="77"/>
			<point x="291" y="66"/>
			<point x="121" y="64" type="curve"/>
			<point x="428" y="346"/>
			<point x="491" y="397"/>
			<point x="539" y="430" type="curve"/>
			<point x="517" y="453" type="line"/>
			<point x="491" y="433"/>
			<point x="441" y="438"/>
			<point x="373" y="438" type="curve"/>
			<point x="296" y="438"/>
			<point x="238" y="440"/>
			<point x="130" y="440" type="curve"/>
			<point x="121" y="440"/>
			<point x="78" y="397"/>
			<point x="34" y="365" type="curve"/>
			<point x="55" y="343" type="line"/>
			<point x="67" y="356"/>
			<point x="171" y="365"/>
			<point x="266" y="365" type="curve"/>
			<point x="391" y="365" type="line"/>
		</contour>
	</outline>
</glyph>
<glyph name="a_macr" format="2">
	<advance width="456"/>
	<unicode hex="0101"/>
	<outline>
		<contour>
			<point x="126" y="-10" type="curve"/>
			<point x="126" y="-10" type="line"/>
			<point x="180" y="-10"/>
			<point x="247" y="34"/>
			<point x="289" y="89" type="curve"/>
			<point x="291" y="68"/>
			<point x="301" y="30"/>
			<point x="315" y="-10" type="curve"/>
			<point x="435" y="42" type="line"/>
			<point x="431" y="64" type="line"/>
			<point x="375" y="64"/>
			<point x="379" y="90"/>
			<point x="374" y="175" type="curve"/>
			<point x="371" y="224"/>
			<point x="372" y="357"/>
			<point x="394" y="421" type="curve"/>
			<point x="386" y="440" type="line"/>
			<point x="317" y="416"/>
			<point x="238" y="393"/>
			<point x="147" y="371" type="curve"/>
			<point x="155" y="344" type="line"/>
			<point x="258" y="364"/>
			<point x="285" y="347"/>
			<point x="285" y="314" type="curve"/>
			<point x="286" y="247" type="line"/>
			<point x="212" y="241" type="line" smooth="yes"/>
			<point x="103" y="231"/>
			<point x="5" y="200"/>
			<point x="5" y="100" type="curve"/>
			<point x="5" y="30"/>
			<point x="61" y="-10"/>
		</contour>
		<contour>
			<point x="166" y="62" type="curve"/>
			<point x="166" y="62" type="line"/>
			<point x="122" y="62"/>
			<point x="95" y="83"/>
			<point x="95" y="120" type="curve"/>
			<point x="95" y="161"/>
			<point x="122" y="201"/>
			<point x="240" y="217" type="curve"/>
			<point x="286" y="223" type="line"/>
			<point x="289" y="129" type="line"/>
			<point x="278" y="92"/>
			<point x="208" y="62"/>
		</contour>
		<contour>
			<point x="151" y="488" type="curve"/>
			<point x="172" y="464" type="line"/>
			<point x="197" y="491"/>
			<point x="219" y="498"/>
			<point x="253" y="498" type="curve"/>
			<point x="288" y="498"/>
			<point x="302" y="494"/>
			<point x="338" y="494" type="curve"/>
			<point x="378" y="522"/>
			<point x="407" y="554"/>
			<point x="451" y="604" type="curve"/>
			<point x="427" y="623" type="line"/>
			<point x="395" y="592"/>
			<point x="374" y="565"/>
			<point x="343" y="565" type="curve"/>
			<point x="300" y="565"/>
			<point x="287" y="572"/>
			<point x="243" y="572" type="curve"/>
			<point x="204" y="540"/>
			<point x="182" y="517"/>
		</contour>
	</outline>
</glyph>
<glyph name="e_macr" format="2">
	<advance width="422"/>
	<unicode hex="0113"/>
	<outline>
		<contour>
			<point x="185" y="-10" type="curve" smooth="yes"/>
			<point x="255" y="-10"/>
			<point x="356" y="54"/>
			<point x="395" y="92" type="curve"/>
			<point x="380" y="115" type="line"/>
			<point x="339" y="89"/>
			<point x="281" y="65"/>
			<point x="235" y="65" type="curve" smooth="yes"/>
			<point x="165" y="65"/>
			<point x="113" y="118"/>
			<point x="113" y="228" type="curve" smooth="yes"/>
			<point x="113" y="247" type="line"/>
			<point x="407" y="289" type="line"/>
			<point x="404" y="315" type="line"/>
			<point x="382" y="314"/>
			<point x="377" y="312"/>
			<point x="362" y="337" type="curve" smooth="yes"/>
			<point x="332" y="387"/>
			<point x="291" y="440"/>
			<point x="227" y="440" type="curve" smooth="yes"/>
			<point x="193" y="440"/>
			<point x="101" y="401"/>
			<point x="78" y="373" type="curve" smooth="yes"/>
			<point x="46" y="334"/>
			<point x="30" y="268"/>
			<point x="30" y="202" type="curve" smooth="yes"/>
			<point x="30" y="102"/>
			<point x="65" y="-10"/>
		</contour>
		<contour>
			<point x="116" y="277" type="line"/>
			<point x="125" y="341"/>
			<point x="152" y="379"/>
			<point x="184" y="379" type="curve" smooth="yes"/>
			<point x="212" y="379"/>
			<point x="250" y="352"/>
			<point x="270" y="298" type="curve"/>
		</contour>
		<contour>
			<point x="82" y="464" type="line"/>
			<point x="107" y="491"/>
			<point x="159" y="498"/>
			<point x="193" y="498" type="curve" smooth="yes"/>
			<point x="228" y="498"/>
			<point x="242" y="494"/>
			<point x="278" y="494" type="curve"/>
			<point x="318" y="522"/>
			<point x="347" y="554"/>
			<point x="391" y="604" type="curve"/>
			<point x="367" y="623" type="line"/>
			<point x="335" y="592"/>
			<point x="314" y="565"/>
			<point x="283" y="565" type="curve" smooth="yes"/>
			<point x="250" y="565"/>
			<point x="223" y="571"/>
			<point x="191" y="571" type="curve"/>
			<point x="152" y="546"/>
			<point x="92" y="517"/>
			<point x="61" y="488" type="curve"/>
		</contour>
	</outline>
</glyph>
<glyph name="i_macr" format="2">
	<advance width="255"/>
	<unicode hex="012B"/>
	<outline>
		<contour>
			<point x="141" y="-10" type="curve"/>
			<point x="245" y="35" type="line"/>
			<point x="238" y="65" type="line"/>
			<point x="182" y="65"/>
			<point x="169" y="75"/>
			<point x="168" y="160" type="curve" smooth="yes"/>
			<point x="167" y="235"/>
			<point x="163" y="390"/>
			<point x="191" y="423" type="curve"/>
			<point x="182" y="444" type="line"/>
			<point x="134" y="428"/>
			<point x="81" y="413"/>
			<point x="23" y="398" type="curve"/>
			<point x="30" y="363" type="line"/>
			<point x="63" y="366"/>
			<point x="84" y="367"/>
			<point x="84" y="304" type="curve" smooth="yes"/>
			<point x="84" y="254"/>
			<point x="78" y="160"/>
			<point x="78" y="80" type="curve" smooth="yes"/>
			<point x="78" y="40"/>
			<point x="111" y="-10"/>
		</contour>
		<contour>
			<point x="46" y="425" type="line"/>
			<point x="54" y="463"/>
			<point x="107" y="467"/>
			<point x="186" y="476" type="curve"/>
			<point x="193" y="500"/>
			<point x="208" y="549"/>
			<point x="228" y="633" type="curve"/>
			<point x="184" y="647" type="line"/>
			<point x="187" y="571"/>
			<point x="180" y="566"/>
			<point x="66" y="545" type="curve"/>
			<point x="48" y="512"/>
			<point x="30" y="468"/>
			<point x="15" y="434" type="curve"/>
		</contour>
	</outline>
</glyph>
<glyph name="o_macr" format="2">
	<advance width="482"/>
	<unicode hex="014D"/>
	<outline>
		<contour>
			<point x="234" y="-10" type="curve" smooth="yes"/>
			<point x="354" y="-10"/>
			<point x="452" y="94"/>
			<point x="452" y="224" type="curve" smooth="yes"/>
			<point x="452" y="345"/>
			<point x="382" y="440"/>
			<point x="251" y="440" type="curve" smooth="yes"/>
			<point x="131" y="440"/>
			<point x="30" y="334"/>
			<point x="30" y="204" type="curve" smooth="yes"/>
			<point x="30" y="94"/>
			<point x="104" y="-10"/>
		</contour>
		<contour>
			<point x="261" y="56" type="curve" smooth="yes"/>
			<point x="181" y="56"/>
			<point x="101" y="137"/>
			<point x="101" y="242" type="curve" smooth="yes"/>
			<point x="101" y="319"/>
			<point x="153" y="372"/>
			<point x="223" y="372" type="curve" smooth="yes"/>
			<point x="297" y="372"/>
			<point x="384" y="294"/>
			<point x="384" y="194" type="curve" smooth="yes"/>
			<point x="384" y="110"/>
			<point x="337" y="56"/>
		</contour>
		<contour>
			<point x="100" y="458" type="line"/>
			<point x="188" y="501"/>
			<point x="194" y="496"/>
			<point x="286" y="505" type="curve"/>
			<point x="332" y="541"/>
			<point x="373" y="577"/>
			<point x="411" y="659" type="curve"/>
			<point x="370" y="677" type="line"/>
			<point x="343" y="592"/>
			<point x="334" y="589"/>
			<point x="216" y="570" type="curve"/>
			<point x="164" y="540"/>
			<point x="112" y="507"/>
			<point x="71" y="475" type="curve"/>
		</contour>
	</outline>
</glyph>
<glyph name="u_macr" format="2">
	<advance width="520"/>
	<unicode hex="016B"/>
	<outline>
		<contour>
			<point x="181" y="-10" type="curve" smooth="yes"/>
			<point x="225" y="-10"/>
			<point x="294" y="36"/>
			<point x="356" y="83" type="curve"/>
			<point x="360" y="46"/>
			<point x="381" y="10"/>
			<point x="409" y="-10" type="curve"/>
			<point x="510" y="35" type="line"/>
			<point x="503" y="65" type="line"/>
			<point x="447" y="65"/>
			<point x="443" y="95"/>
			<point x="443" y="180" type="curve" smooth="yes"/>
			<point x="443" y="269"/>
			<point x="445" y="375"/>
			<point x="467" y="412" type="curve"/>
			<point x="457" y="433" type="line"/>
			<point x="419" y="430"/>
			<point x="378" y="430"/>
			<point x="318" y="430" type="curve"/>
			<point x="318" y="395" type="line"/>
			<point x="341" y="392"/>
			<point x="366" y="389"/>
			<point x="366" y="356" type="curve" smooth="yes"/>
			<point x="366" y="287"/>
			<point x="358" y="184"/>
			<point x="356" y="119" type="curve"/>
			<point x="323" y="94"/>
			<point x="270" y="65"/>
			<point x="221" y="65" type="curve" smooth="yes"/>
			<point x="167" y="65"/>
			<point x="144" y="94"/>
			<point x="144" y="171" type="curve" smooth="yes"/>
			<point x="144" y="270"/>
			<point x="154" y="373"/>
			<point x="181" y="419" type="curve"/>
			<point x="175" y="432" type="line"/>
			<point x="146" y="429"/>
			<point x="86" y="429"/>
			<point x="25" y="429" type="curve"/>
			<point x="25" y="394" type="line"/>
			<point x="59" y="387"/>
			<point x="76" y="369"/>
			<point x="76" y="310" type="curve" smooth="yes"/>
			<point x="76" y="273"/>
			<point x="64" y="203"/>
			<point x="64" y="132" type="curve" smooth="yes"/>
			<point x="64" y="52"/>
			<point x="87" y="-10"/>
		</contour>
		<contour>
			<point x="116" y="479" type="line"/>
			<point x="163" y="537"/>
			<point x="189" y="542"/>
			<point x="301" y="554" type="curve"/>
			<point x="335" y="594"/>
			<point x="366" y="641"/>
			<point x="383" y="694" type="curve"/>
			<point x="350" y="707" type="line"/>
			<point x="328" y="632"/>
			<point x="326" y="625"/>
			<point x="169" y="614" type="curve"/>
			<point x="150" y="580"/>
			<point x="119" y="545"/>
			<point x="84" y="489" type="curve"/>
		</contour>
	</outline>
</glyph>
<glyph name="pamphyliandigamma" format="2">
	<advance width="485"/>
	<unicode hex="0377"/>
	<outline>
		<contour>
			<point x="58" y="6" type="curve"/>
			<point x="85" y="-11" type="line"/>
			<point x="154" y="92"/>
			<point x="253" y="237"/>
			<point x="333" y="324" type="curve"/>
			<point x="327" y="236"/>
			<point x="327" y="89"/>
			<point x="327" y="0" type="curve"/>
			<point x="419" y="0" type="line"/>
			<point x="414" y="180"/>
			<point x="413" y="335"/>
			<point x="445" y="515" type="curve"/>
			<point x="408" y="519" type="line"/>
			<point x="356" y="428"/>
			<point x="251" y="282"/>
			<point x="159" y="173" type="curve"/>
			<point x="173" y="261"/>
			<point x="160" y="383"/>
			<point x="143" y="457" type="curve"/>
			<point x="50" y="457" type="line"/>
			<point x="76" y="328"/>
			<point x="99" y="172"/>
		</contour>
	</outline>
</glyph>
<glyph name="gamma" format="2">
	<advance width="497"/>
	<unicode hex="03B3"/>
	<outline>
		<contour>
			<point x="30" y="0" type="curve"/>
			<point x="30" y="0" type="line"/>
			<point x="125" y="0" type="line"/>
			<point x="122" y="102"/>
			<point x="121" y="364"/>
			<point x="125" y="443" type="curve"/>
			<point x="223" y="452"/>
			<point x="331" y="456"/>
			<point x="386" y="484" type="curve"/>
			<point x="404" y="493"/>
			<point x="482" y="591"/>
			<point x="497" y="625" type="curve"/>
			<point x="474" y="638" type="line"/>
			<point x="421" y="578"/>
			<point x="359" y="566"/>
			<point x="249" y="552" type="curve"/>
			<point x="55" y="527" type="line"/>
			<point x="50" y="341"/>
			<point x="40" y="139"/>
		</contour>
	</outline>
</glyph>
<glyph name="mu" format="2">
	<advance width="424"/>
	<unicode hex="03BC"/>
	<outline>
		<contour>
			<point x="33" y="-247" type="curve"/>
			<point x="133" y="-247" type="line"/>
			<point x="130" y="-155"/>
			<point x="128" y="-75"/>
			<point x="127" y="-4" type="curve"/>
			<point x="346" y="48"/>
			<point x="394" y="142"/>
			<point x="394" y="430" type="curve"/>
			<point x="297" y="430" type="line"/>
			<point x="309" y="231"/>
			<point x="297" y="66"/>
			<point x="126" y="46" type="curve"/>
			<point x="125" y="142"/>
			<point x="126" y="221"/>
			<point x="130" y="291" type="curve" smooth="yes"/>
			<point x="134" y="369"/>
			<point x="141" y="400"/>
			<point x="159" y="416" type="curve"/>
			<point x="150" y="440" type="line"/>
			<point x="30" y="430" type="line"/>
			<point x="40" y="189"/>
			<point x="40" y="133"/>
		</contour>
	</outline>
</glyph>
<glyph name="upsilon" format="2">
	<advance width="526"/>
	<unicode hex="03C5"/>
	<outline>
		<contour>
			<point x="222" y="-10" type="curve"/>
			<point x="255" y="-10" type="line"/>
			<point x="422" y="284" type="line" smooth="yes"/>
			<point x="455" y="343"/>
			<point x="493" y="391"/>
			<point x="516" y="405" type="curve"/>
			<point x="516" y="430" type="line"/>
			<point x="447" y="430" type="line"/>
			<point x="363" y="299"/>
			<point x="303" y="162"/>
			<point x="277" y="117" type="curve"/>
			<point x="243" y="224"/>
			<point x="173" y="383"/>
			<point x="116" y="430" type="curve"/>
			<point x="10" y="430" type="line"/>
			<point x="10" y="395" type="line"/>
			<point x="62" y="386"/>
			<point x="164" y="218"/>
		</contour>
	</outline>
</glyph>
<glyph name="omega" format="2">
	<advance width="649"/>
	<unicode hex="03C9"/>
	<outline>
		<contour>
			<point x="213" y="-10" type="curve"/>
			<point x="213" y="-10" type="line"/>
			<point x="266" y="-10"/>
			<point x="307" y="11"/>
			<point x="335" y="44" type="curve"/>
			<point x="361" y="12"/>
			<point x="404" y="-10"/>
			<point x="443" y="-10" type="curve"/>
			<point x="538" y="-10"/>
			<point x="619" y="85"/>
			<point x="619" y="201" type="curve"/>
			<point x="619" y="311"/>
			<point x="545" y="400"/>
			<point x="454" y="440" type="curve"/>
			<point x="415" y="346" type="line"/>
			<point x="484" y="315"/>
			<point x="559" y="254"/>
			<point x="559" y="174" type="curve"/>
			<point x="559" y="99"/>
			<point x="491" y="65"/>
			<point x="452" y="65" type="curve"/>
			<point x="421" y="65"/>
			<point x="392" y="83"/>
			<point x="375" y="125" type="curve"/>
			<point x="374" y="124" type="line"/>
			<point x="385" y="171"/>
			<point x="381" y="225"/>
			<point x="362" y="277" type="curve"/>
			<point x="329" y="262" type="line"/>
			<point x="354" y="148"/>
			<point x="282" y="65"/>
			<point x="212" y="65" type="curve"/>
			<point x="152" y="65"/>
			<point x="100" y="113"/>
			<point x="100" y="173" type="curve"/>
			<point x="100" y="266"/>
			<point x="181" y="318"/>
			<point x="272" y="341" type="curve"/>
			<point x="250" y="440" type="line"/>
			<point x="123" y="406"/>
			<point x="40" y="297"/>
			<point x="40" y="183" type="curve"/>
			<point x="40" y="73"/>
			<point x="103" y="-10"/>
		</contour>
	</outline>
</glyph>
<glyph name="leo" format="2">
	<advance width="600"/>
	<unicode hex="264C"/>
	<outline>
		<contour>
			<point x="183" y="-10" type="curve" smooth="yes"/>
			<point x="274" y="-10"/>
			<point x="360" y="53"/>
			<point x="360" y="136" type="curve" smooth="yes"/>
			<point x="360" y="199"/>
			<point x="302" y="262"/>
			<point x="268" y="306" type="curve" smooth="yes"/>
			<point x="214" y="374"/>
			<point x="150" y="442"/>
			<point x="150" y="475" type="curve" smooth="yes"/>
			<point x="150" y="502"/>
			<point x="169" y="520"/>
			<point x="197" y="520" type="curve" smooth="yes"/>
			<point x="239" y="520"/>
			<point x="286" y="454"/>
			<point x="337" y="374" type="curve" smooth="yes"/>
			<point x="388" y="293"/>
			<point x="457" y="168"/>
			<point x="514" y="102" type="curve"/>
			<point x="580" y="169" type="line"/>
			<point x="528" y="224"/>
			<point x="452" y="334"/>
			<point x="415" y="398" type="curve" smooth="yes"/>
			<point x="350" y="510"/>
			<point x="294" y="587"/>
			<point x="198" y="587" type="curve" smooth="yes"/>
			<point x="128" y="587"/>
			<point x="76" y="534"/>
			<point x="76" y="469" type="curve" smooth="yes"/>
			<point x="76" y="428"/>
			<point x="98" y="388"/>
			<point x="158" y="317" type="curve"/>
			<point x="58" y="251"/>
			<point x="25" y="199"/>
			<point x="25" y="120" type="curve" smooth="yes"/>
			<point x="25" y="46"/>
			<point x="92" y="-10"/>
		</contour>
		<contour>
			<point x="186" y="55" type="curve" smooth="yes"/>
			<point x="137" y="55"/>
			<point x="95" y="87"/>
			<point x="95" y="142" type="curve" smooth="yes"/>
			<point x="95" y="181"/>
			<point x="117" y="251"/>
			<point x="177" y="295" type="curve"/>
			<point x="187" y="285"/>
			<point x="196" y="274"/>
			<point x="207" y="262" type="curve" smooth="yes"/>
			<point x="258" y="206"/>
			<point x="275" y="164"/>
			<point x="275" y="142" type="curve" smooth="yes"/>
			<point x="275" y="87"/>
			<point x="235" y="55"/>
		</contour>
	</outline>
</glyph>
<glyph name="p_bardes" format="2">
	<advance width="519"/>
	<unicode hex="A750"/>
	<outline>
		<contour>
			<point x="23" y="-304" type="line"/>
			<point x="95" y="-300"/>
			<point x="182" y="-300"/>
			<point x="224" y="-304" type="curve"/>
			<point x="224" y="-274" type="line"/>
			<point x="172" y="-256"/>
			<point x="160" y="-255"/>
			<point x="160" y="-204" type="curve" smooth="yes"/>
			<point x="160" y="-136" type="line"/>
			<point x="222" y="-138"/>
			<point x="285" y="-143"/>
			<point x="342" y="-150" type="curve"/>
			<point x="345" y="-136" type="line"/>
			<point x="287" y="-119"/>
			<point x="223" y="-105"/>
			<point x="159" y="-95" type="curve"/>
			<point x="159" y="-66"/>
			<point x="158" y="-33"/>
			<point x="158" y="2" type="curve"/>
			<point x="188" y="-6"/>
			<point x="222" y="-9"/>
			<point x="256" y="-9" type="curve" smooth="yes"/>
			<point x="407" y="-9"/>
			<point x="489" y="119"/>
			<point x="489" y="235" type="curve" smooth="yes"/>
			<point x="489" y="345"/>
			<point x="436" y="440"/>
			<point x="337" y="440" type="curve" smooth="yes"/>
			<point x="294" y="440"/>
			<point x="221" y="407"/>
			<point x="160" y="385" type="curve"/>
			<point x="161" y="441" type="line"/>
			<point x="147" y="452" type="line"/>
			<point x="107" y="443"/>
			<point x="71" y="438"/>
			<point x="29" y="430" type="curve"/>
			<point x="29" y="395" type="line"/>
			<point x="58" y="387"/>
			<point x="69" y="376"/>
			<point x="73" y="319" type="curve" smooth="yes"/>
			<point x="78" y="244"/>
			<point x="74" y="50"/>
			<point x="70" y="-84" type="curve"/>
			<point x="53" y="-82"/>
			<point x="36" y="-80"/>
			<point x="20" y="-79" type="curve"/>
			<point x="15" y="-136" type="line"/>
			<point x="32" y="-135"/>
			<point x="50" y="-135"/>
			<point x="68" y="-135" type="curve"/>
			<point x="67" y="-177"/>
			<point x="65" y="-208"/>
			<point x="65" y="-218" type="curve" smooth="yes"/>
			<point x="64" y="-251"/>
			<point x="53" y="-258"/>
			<point x="23" y="-269" type="curve"/>
		</contour>
		<contour>
			<point x="284" y="40" type="curve" smooth="yes"/>
			<point x="218" y="40"/>
			<point x="186" y="64"/>
			<point x="158" y="95" type="curve"/>
			<point x="157" y="182"/>
			<point x="157" y="274"/>
			<point x="159" y="350" type="curve"/>
			<point x="186" y="361"/>
			<point x="222" y="370"/>
			<point x="256" y="370" type="curve" smooth="yes"/>
			<point x="325" y="370"/>
			<point x="408" y="303"/>
			<point x="408" y="186" type="curve" smooth="yes"/>
			<point x="408" y="114"/>
			<point x="375" y="40"/>
		</contour>
	</outline>
</glyph>
<glyph name="p_flour" format="2">
	<advance width="538"/>
	<unicode hex="A753"/>
	<outline>
		<contour>
			<point x="74" y="-303" type="curve"/>
			<point x="189" y="-298" type="line"/>
			<point x="184" y="-255"/>
			<point x="180" y="-137"/>
			<point x="178" y="-6" type="curve"/>
			<point x="207" y="-14"/>
			<point x="241" y="-17"/>
			<point x="275" y="-17" type="curve" smooth="yes"/>
			<point x="426" y="-17"/>
			<point x="508" y="111"/>
			<point x="508" y="227" type="curve" smooth="yes"/>
			<point x="508" y="337"/>
			<point x="455" y="432"/>
			<point x="356" y="432" type="curve" smooth="yes"/>
			<point x="313" y="432"/>
			<point x="240" y="399"/>
			<point x="179" y="377" type="curve"/>
			<point x="180" y="433" type="line"/>
			<point x="166" y="444" type="line"/>
			<point x="126" y="435"/>
			<point x="79" y="423"/>
			<point x="8" y="401" type="curve"/>
			<point x="8" y="361" type="line"/>
			<point x="67" y="376"/>
			<point x="88" y="368"/>
			<point x="92" y="311" type="curve" smooth="yes"/>
			<point x="95" y="264"/>
			<point x="95" y="157"/>
			<point x="92" y="45" type="curve"/>
			<point x="91" y="50" type="line"/>
			<point x="67" y="30"/>
			<point x="-5" y="-1"/>
			<point x="-36" y="-48" type="curve" smooth="yes"/>
			<point x="-62" y="-87"/>
			<point x="-48" y="-156"/>
			<point x="-90" y="-220" type="curve"/>
			<point x="-78" y="-261" type="line"/>
			<point x="25" y="-192"/>
			<point x="6" y="-42"/>
			<point x="67" y="-4" type="curve" smooth="yes"/>
			<point x="91" y="11" type="line"/>
			<point x="88" y="-135"/>
			<point x="80" y="-280"/>
		</contour>
		<contour>
			<point x="303" y="32" type="curve" smooth="yes"/>
			<point x="237" y="32"/>
			<point x="206" y="55"/>
			<point x="177" y="86" type="curve"/>
			<point x="176" y="180"/>
			<point x="176" y="272"/>
			<point x="178" y="342" type="curve"/>
			<point x="205" y="353"/>
			<point x="241" y="362"/>
			<point x="275" y="362" type="curve" smooth="yes"/>
			<point x="344" y="362"/>
			<point x="427" y="295"/>
			<point x="427" y="178" type="curve" smooth="yes"/>
			<point x="427" y="106"/>
			<point x="394" y="32"/>
		</contour>
	</outline>
</glyph>
<glyph name="q_bardes" format="2">
	<advance width="572"/>
	<unicode hex="A757"/>
	<outline>
		<contour>
			<point x="354" y="-268" type="curve"/>
			<point x="354" y="-303" type="line"/>
			<point x="396" y="-300"/>
			<point x="495" y="-299"/>
			<point x="557" y="-303" type="curve"/>
			<point x="557" y="-268" type="line"/>
			<point x="510" y="-262"/>
			<point x="507" y="-261"/>
			<point x="504" y="-213" type="curve"/>
			<point x="504" y="-205"/>
			<point x="503" y="-196"/>
			<point x="503" y="-187" type="curve"/>
			<point x="557" y="-181" type="line"/>
			<point x="544" y="-125" type="line"/>
			<point x="501" y="-135" type="line"/>
			<point x="497" y="-36"/>
			<point x="495" y="105"/>
			<point x="497" y="244" type="curve"/>
			<point x="498" y="363"/>
			<point x="510" y="383"/>
			<point x="522" y="430" type="curve"/>
			<point x="514" y="440" type="line"/>
			<point x="488" y="434"/>
			<point x="467" y="432"/>
			<point x="437" y="432" type="curve"/>
			<point x="391" y="432"/>
			<point x="328" y="441"/>
			<point x="266" y="441" type="curve"/>
			<point x="136" y="441"/>
			<point x="30" y="347"/>
			<point x="30" y="197" type="curve"/>
			<point x="30" y="97"/>
			<point x="83" y="-10"/>
			<point x="213" y="-10" type="curve"/>
			<point x="315" y="-10"/>
			<point x="367" y="39"/>
			<point x="410" y="87" type="curve"/>
			<point x="411" y="-27"/>
			<point x="410" y="-109"/>
			<point x="409" y="-162" type="curve"/>
			<point x="352" y="-181"/>
			<point x="294" y="-207"/>
			<point x="230" y="-247" type="curve"/>
			<point x="235" y="-260" type="line"/>
			<point x="296" y="-231"/>
			<point x="353" y="-214"/>
			<point x="407" y="-203" type="curve"/>
			<point x="407" y="-213"/>
			<point x="406" y="-221"/>
			<point x="406" y="-225" type="curve"/>
			<point x="403" y="-256"/>
			<point x="401" y="-264"/>
		</contour>
		<contour>
			<point x="269" y="56" type="curve"/>
			<point x="269" y="56" type="line"/>
			<point x="177" y="56"/>
			<point x="116" y="122"/>
			<point x="116" y="230" type="curve"/>
			<point x="116" y="326"/>
			<point x="171" y="392"/>
			<point x="275" y="392" type="curve"/>
			<point x="357" y="392"/>
			<point x="407" y="336"/>
			<point x="408" y="234" type="curve"/>
			<point x="410" y="135" type="line"/>
			<point x="382" y="91"/>
			<point x="322" y="56"/>
		</contour>
	</outline>
</glyph>
<glyph name="q_strok" format="2">
	<advance width="692"/>
	<unicode hex="A759"/>
	<outline>
		<contour>
			<point x="354" y="-268" type="curve"/>
			<point x="354" y="-303" type="line"/>
			<point x="396" y="-300"/>
			<point x="495" y="-299"/>
			<point x="557" y="-303" type="curve"/>
			<point x="557" y="-268" type="line"/>
			<point x="510" y="-262"/>
			<point x="507" y="-261"/>
			<point x="504" y="-213" type="curve"/>
			<point x="502" y="-168"/>
			<point x="499" y="-99"/>
			<point x="498" y="-19" type="curve"/>
			<point x="595" y="69"/>
			<point x="662" y="160"/>
			<point x="662" y="244" type="curve"/>
			<point x="662" y="307"/>
			<point x="617" y="365"/>
			<point x="575" y="375" type="curve"/>
			<point x="564" y="367"/>
			<point x="531" y="333"/>
			<point x="499" y="308" type="curve"/>
			<point x="503" y="373"/>
			<point x="513" y="393"/>
			<point x="522" y="430" type="curve"/>
			<point x="514" y="440" type="line"/>
			<point x="488" y="434"/>
			<point x="467" y="432"/>
			<point x="437" y="432" type="curve"/>
			<point x="391" y="432"/>
			<point x="328" y="441"/>
			<point x="266" y="441" type="curve"/>
			<point x="136" y="441"/>
			<point x="30" y="347"/>
			<point x="30" y="197" type="curve"/>
			<point x="30" y="97"/>
			<point x="83" y="-10"/>
			<point x="213" y="-10" type="curve"/>
			<point x="315" y="-10"/>
			<point x="367" y="39"/>
			<point x="410" y="87" type="curve"/>
			<point x="411" y="35"/>
			<point x="411" y="-11"/>
			<point x="410" y="-50" type="curve"/>
			<point x="347" y="-100"/>
			<point x="281" y="-143"/>
			<point x="239" y="-171" type="curve"/>
			<point x="262" y="-196" type="line"/>
			<point x="313" y="-163"/>
			<point x="363" y="-128"/>
			<point x="410" y="-92" type="curve"/>
			<point x="409" y="-167"/>
			<point x="407" y="-211"/>
			<point x="406" y="-225" type="curve"/>
			<point x="403" y="-256"/>
			<point x="401" y="-264"/>
		</contour>
		<contour>
			<point x="269" y="56" type="curve"/>
			<point x="269" y="56" type="line"/>
			<point x="177" y="56"/>
			<point x="116" y="122"/>
			<point x="116" y="230" type="curve"/>
			<point x="116" y="326"/>
			<point x="171" y="392"/>
			<point x="275" y="392" type="curve"/>
			<point x="357" y="392"/>
			<point x="407" y="336"/>
			<point x="408" y="234" type="curve"/>
			<point x="410" y="135" type="line"/>
			<point x="382" y="91"/>
			<point x="322" y="56"/>
		</contour>
		<contour>
			<point x="497" y="27" type="curve"/>
			<point x="497" y="27" type="line"/>
			<point x="496" y="95"/>
			<point x="496" y="170"/>
			<point x="497" y="244" type="curve"/>
			<point x="497" y="271" type="line"/>
			<point x="556" y="294"/>
			<point x="592" y="259"/>
			<point x="592" y="204" type="curve"/>
			<point x="592" y="144"/>
			<point x="552" y="83"/>
		</contour>
	</outline>
</glyph>
<glyph name="rum" format="2">
	<advance width="641"/>
	<unicode hex="A775"/>
	<outline>
		<contour>
			<point x="287" y="-261" type="line"/>
			<point x="344" y="-279" type="line"/>
			<point x="407" y="-209"/>
			<point x="454" y="-138"/>
			<point x="454" y="-21" type="curve"/>
			<point x="454" y="-16"/>
			<point x="454" y="-10"/>
			<point x="453" y="-4" type="curve"/>
			<point x="578" y="-4" type="line"/>
			<point x="616" y="122" type="line"/>
			<point x="591" y="132" type="line"/>
			<point x="576" y="102"/>
			<point x="550" y="74"/>
			<point x="485" y="74" type="curve"/>
			<point x="435" y="74" type="line"/>
			<point x="422" y="120"/>
			<point x="407" y="171"/>
			<point x="407" y="224" type="curve"/>
			<point x="407" y="290"/>
			<point x="447" y="341"/>
			<point x="504" y="341" type="curve"/>
			<point x="537" y="341"/>
			<point x="571" y="328"/>
			<point x="605" y="311" type="curve"/>
			<point x="621" y="322" type="line"/>
			<point x="612" y="396" type="line"/>
			<point x="576" y="431"/>
			<point x="529" y="440"/>
			<point x="495" y="440" type="curve"/>
			<point x="420" y="440"/>
			<point x="354" y="392"/>
			<point x="354" y="279" type="curve"/>
			<point x="354" y="210"/>
			<point x="378" y="140"/>
			<point x="395" y="74" type="curve"/>
			<point x="272" y="74"/>
			<point x="180" y="73"/>
			<point x="127" y="73" type="curve"/>
			<point x="178" y="139"/>
			<point x="245" y="246"/>
			<point x="245" y="323" type="curve"/>
			<point x="245" y="388"/>
			<point x="186" y="443"/>
			<point x="114" y="443" type="curve"/>
			<point x="90" y="433"/>
			<point x="57" y="416"/>
			<point x="26" y="397" type="curve"/>
			<point x="32" y="375" type="line"/>
			<point x="110" y="371"/>
			<point x="167" y="320"/>
			<point x="167" y="246" type="curve"/>
			<point x="167" y="178"/>
			<point x="97" y="86"/>
			<point x="20" y="9" type="curve"/>
			<point x="39" y="-9" type="line"/>
			<point x="130" y="3"/>
			<point x="296" y="-3"/>
			<point x="410" y="-4" type="curve"/>
			<point x="411" y="-14"/>
			<point x="412" y="-24"/>
			<point x="412" y="-34" type="curve"/>
			<point x="412" y="-108"/>
			<point x="387" y="-203"/>
			<point x="287" y="-241" type="curve"/>
		</contour>
	</outline>
</glyph>
<glyph name="m_macr" format="2">
	<advance width="761"/>
	<unicode hex="E5B8"/>
	<outline>
		<contour>
			<point x="567" y="-8" type="line"/>
			<point x="618" y="2"/>
			<point x="665" y="1"/>
			<point x="736" y="-4" type="curve"/>
			<point x="736" y="31" type="line"/>
			<point x="694" y="41"/>
			<point x="684" y="51"/>
			<point x="679" y="75" type="curve" smooth="yes"/>
			<point x="671" y="114"/>
			<point x="683" y="224"/>
			<point x="683" y="307" type="curve" smooth="yes"/>
			<point x="683" y="389"/>
			<point x="651" y="440"/>
			<point x="579" y="440" type="curve" smooth="yes"/>
			<point x="510" y="440"/>
			<point x="466" y="405"/>
			<point x="422" y="365" type="curve"/>
			<point x="407" y="404"/>
			<point x="371" y="440"/>
			<point x="308" y="440" type="curve" smooth="yes"/>
			<point x="251" y="440"/>
			<point x="214" y="400"/>
			<point x="172" y="361" type="curve"/>
			<point x="163" y="391"/>
			<point x="132" y="432"/>
			<point x="87" y="440" type="curve"/>
			<point x="25" y="387" type="line"/>
			<point x="25" y="365" type="line"/>
			<point x="70" y="348"/>
			<point x="86" y="337"/>
			<point x="87" y="276" type="curve" smooth="yes"/>
			<point x="89" y="170"/>
			<point x="84" y="81"/>
			<point x="75" y="0" type="curve"/>
			<point x="176" y="0" type="line"/>
			<point x="171" y="87"/>
			<point x="172" y="86"/>
			<point x="173" y="311" type="curve" smooth="yes"/>
			<point x="173" y="310" type="line"/>
			<point x="187" y="339"/>
			<point x="218" y="365"/>
			<point x="263" y="365" type="curve" smooth="yes"/>
			<point x="306" y="365"/>
			<point x="344" y="332"/>
			<point x="344" y="258" type="curve" smooth="yes"/>
			<point x="344" y="138"/>
			<point x="340" y="49"/>
			<point x="335" y="0" type="curve"/>
			<point x="435" y="0" type="line"/>
			<point x="430" y="42"/>
			<point x="428" y="221"/>
			<point x="428" y="274" type="curve" smooth="yes"/>
			<point x="427" y="315" type="line"/>
			<point x="440" y="344"/>
			<point x="472" y="365"/>
			<point x="517" y="365" type="curve" smooth="yes"/>
			<point x="577" y="365"/>
			<point x="603" y="322"/>
			<point x="603" y="238" type="curve" smooth="yes"/>
			<point x="603" y="133"/>
			<point x="590" y="58"/>
			<point x="563" y="6" type="curve"/>
		</contour>
		<contour>
			<point x="202" y="485" type="line"/>
			<point x="227" y="512"/>
			<point x="279" y="519"/>
			<point x="313" y="519" type="curve" smooth="yes"/>
			<point x="348" y="519"/>
			<point x="495" y="515"/>
			<point x="531" y="515" type="curve"/>
			<point x="571" y="543"/>
			<point x="600" y="575"/>
			<point x="624" y="596" type="curve"/>
			<point x="600" y="615" type="line"/>
			<point x="588" y="613"/>
			<point x="567" y="586"/>
			<point x="536" y="586" type="curve" smooth="yes"/>
			<point x="503" y="586"/>
			<point x="313" y="592"/>
			<point x="281" y="592" type="curve"/>
			<point x="252" y="567"/>
			<point x="212" y="538"/>
			<point x="181" y="509" type="curve"/>
		</contour>
	</outline>
</glyph>
<glyph name="n_macr" format="2">
	<advance width="504"/>
	<unicode hex="E5DC"/>
	<outline>
		<contour>
			<point x="316" y="9" type="curve"/>
			<point x="320" y="-6" type="line"/>
			<point x="371" y="6"/>
			<point x="409" y="4"/>
			<point x="479" y="0" type="curve"/>
			<point x="479" y="35" type="line"/>
			<point x="450" y="41"/>
			<point x="426" y="49"/>
			<point x="422" y="76" type="curve"/>
			<point x="415" y="115"/>
			<point x="429" y="215"/>
			<point x="429" y="298" type="curve"/>
			<point x="429" y="378"/>
			<point x="384" y="440"/>
			<point x="314" y="440" type="curve"/>
			<point x="248" y="440"/>
			<point x="225" y="411"/>
			<point x="176" y="361" type="curve"/>
			<point x="168" y="391"/>
			<point x="146" y="422"/>
			<point x="62" y="440" type="curve"/>
			<point x="10" y="387" type="line"/>
			<point x="10" y="365" type="line"/>
			<point x="75" y="348"/>
			<point x="91" y="337"/>
			<point x="92" y="276" type="curve"/>
			<point x="94" y="170"/>
			<point x="89" y="81"/>
			<point x="80" y="0" type="curve"/>
			<point x="180" y="0" type="line"/>
			<point x="175" y="88"/>
			<point x="176" y="86"/>
			<point x="177" y="313" type="curve"/>
			<point x="195" y="346"/>
			<point x="224" y="365"/>
			<point x="266" y="365" type="curve"/>
			<point x="316" y="365"/>
			<point x="349" y="312"/>
			<point x="349" y="218" type="curve"/>
			<point x="349" y="147"/>
			<point x="346" y="92"/>
		</contour>
		<contour>
			<point x="87" y="524" type="curve"/>
			<point x="108" y="500" type="line"/>
			<point x="122" y="512"/>
			<point x="174" y="519"/>
			<point x="208" y="519" type="curve"/>
			<point x="243" y="519"/>
			<point x="302" y="515"/>
			<point x="338" y="515" type="curve"/>
			<point x="378" y="543"/>
			<point x="407" y="575"/>
			<point x="419" y="586" type="curve"/>
			<point x="395" y="605" type="line"/>
			<point x="384" y="599"/>
			<point x="374" y="586"/>
			<point x="343" y="586" type="curve"/>
			<point x="310" y="586"/>
			<point x="208" y="592"/>
			<point x="176" y="592" type="curve"/>
			<point x="147" y="567"/>
			<point x="107" y="538"/>
		</contour>
	</outline>
</glyph>
<glyph name="p_macr" format="2">
	<advance width="515"/>
	<unicode hex="E665"/>
	<outline>
		<contour>
			<point x="36" y="-304" type="line"/>
			<point x="91" y="-300"/>
			<point x="178" y="-300"/>
			<point x="220" y="-304" type="curve"/>
			<point x="220" y="-274" type="line"/>
			<point x="158" y="-265"/>
			<point x="156" y="-264"/>
			<point x="156" y="-253" type="curve" smooth="yes"/>
			<point x="156" y="-196"/>
			<point x="155" y="-101"/>
			<point x="154" y="2" type="curve"/>
			<point x="183" y="-6"/>
			<point x="218" y="-9"/>
			<point x="252" y="-9" type="curve" smooth="yes"/>
			<point x="403" y="-9"/>
			<point x="485" y="119"/>
			<point x="485" y="235" type="curve" smooth="yes"/>
			<point x="485" y="345"/>
			<point x="432" y="440"/>
			<point x="333" y="440" type="curve" smooth="yes"/>
			<point x="290" y="440"/>
			<point x="217" y="407"/>
			<point x="156" y="385" type="curve"/>
			<point x="157" y="431" type="line"/>
			<point x="143" y="442" type="line"/>
			<point x="103" y="433"/>
			<point x="67" y="435"/>
			<point x="25" y="430" type="curve"/>
			<point x="25" y="395" type="line"/>
			<point x="54" y="387"/>
			<point x="65" y="376"/>
			<point x="69" y="319" type="curve" smooth="yes"/>
			<point x="77" y="206"/>
			<point x="62" y="-181"/>
			<point x="61" y="-224" type="curve" smooth="yes"/>
			<point x="60" y="-266"/>
			<point x="59" y="-264"/>
			<point x="36" y="-275" type="curve"/>
		</contour>
		<contour>
			<point x="280" y="40" type="curve" smooth="yes"/>
			<point x="214" y="40"/>
			<point x="182" y="64"/>
			<point x="154" y="95" type="curve"/>
			<point x="153" y="185"/>
			<point x="153" y="275"/>
			<point x="155" y="350" type="curve"/>
			<point x="182" y="361"/>
			<point x="218" y="370"/>
			<point x="252" y="370" type="curve" smooth="yes"/>
			<point x="321" y="370"/>
			<point x="404" y="303"/>
			<point x="404" y="186" type="curve" smooth="yes"/>
			<point x="404" y="114"/>
			<point x="371" y="40"/>
		</contour>
		<contour>
			<point x="131" y="497" type="line"/>
			<point x="176" y="534"/>
			<point x="196" y="540"/>
			<point x="279" y="537" type="curve"/>
			<point x="325" y="578"/>
			<point x="352" y="603"/>
			<point x="389" y="654" type="curve"/>
			<point x="352" y="666" type="line"/>
			<point x="330" y="628"/>
			<point x="328" y="617"/>
			<point x="213" y="616" type="curve"/>
			<point x="171" y="583"/>
			<point x="145" y="560"/>
			<point x="107" y="521" type="curve"/>
		</contour>
	</outline>
</glyph>
<glyph name="t_acute" format="2">
	<advance width="437"/>
	<unicode hex="E6E2"/>
	<outline>
		<contour>
			<point x="194" y="-10" type="curve" smooth="yes"/>
			<point x="265" y="-10"/>
			<point x="354" y="53"/>
			<point x="401" y="96" type="curve"/>
			<point x="391" y="111" type="line"/>
			<point x="353" y="90"/>
			<point x="274" y="65"/>
			<point x="238" y="65" type="curve" smooth="yes"/>
			<point x="169" y="65"/>
			<point x="147" y="97"/>
			<point x="147" y="161" type="curve" smooth="yes"/>
			<point x="147" y="254"/>
			<point x="150" y="319"/>
			<point x="155" y="366" type="curve"/>
			<point x="225" y="369"/>
			<point x="321" y="369"/>
			<point x="387" y="365" type="curve"/>
			<point x="388" y="429" type="line"/>
			<point x="164" y="429" type="line"/>
			<point x="168" y="448"/>
			<point x="172" y="463"/>
			<point x="176" y="475" type="curve"/>
			<point x="159" y="483" type="line"/>
			<point x="128" y="460"/>
			<point x="86" y="427"/>
			<point x="81" y="427" type="curve" smooth="yes"/>
			<point x="46" y="424" type="line"/>
			<point x="45" y="421" type="line"/>
			<point x="68" y="357" type="line"/>
			<point x="67" y="308"/>
			<point x="65" y="198"/>
			<point x="65" y="112" type="curve" smooth="yes"/>
			<point x="65" y="17"/>
			<point x="118" y="-10"/>
		</contour>
		<contour>
			<point x="222" y="478" type="line"/>
			<point x="245" y="512"/>
			<point x="300" y="526"/>
			<point x="375" y="530" type="curve"/>
			<point x="396" y="573"/>
			<point x="418" y="621"/>
			<point x="442" y="657" type="curve"/>
			<point x="407" y="662" type="line"/>
			<point x="377" y="617"/>
			<point x="364" y="608"/>
			<point x="260" y="586" type="curve"/>
			<point x="201" y="493" type="line"/>
		</contour>
	</outline>
</glyph>
<glyph name="q_etfin" format="2">
	<advance width="680"/>
	<unicode hex="E8BF"/>
	<outline>
		<contour>
			<point x="354" y="-303" type="line"/>
			<point x="396" y="-300"/>
			<point x="495" y="-299"/>
			<point x="557" y="-303" type="curve"/>
			<point x="557" y="-268" type="line"/>
			<point x="510" y="-262"/>
			<point x="507" y="-261"/>
			<point x="504" y="-213" type="curve" smooth="yes"/>
			<point x="499" y="-122"/>
			<point x="495" y="62"/>
			<point x="497" y="244" type="curve" smooth="yes"/>
			<point x="498" y="363"/>
			<point x="510" y="383"/>
			<point x="522" y="430" type="curve"/>
			<point x="514" y="440" type="line"/>
			<point x="488" y="434"/>
			<point x="467" y="432"/>
			<point x="437" y="432" type="curve" smooth="yes"/>
			<point x="391" y="432"/>
			<point x="328" y="441"/>
			<point x="266" y="441" type="curve" smooth="yes"/>
			<point x="136" y="441"/>
			<point x="30" y="347"/>
			<point x="30" y="197" type="curve" smooth="yes"/>
			<point x="30" y="97"/>
			<point x="83" y="-10"/>
			<point x="213" y="-10" type="curve" smooth="yes"/>
			<point x="315" y="-10"/>
			<point x="367" y="39"/>
			<point x="410" y="87" type="curve"/>
			<point x="412" y="-99"/>
			<point x="408" y="-202"/>
			<point x="406" y="-225" type="curve" smooth="yes"/>
			<point x="403" y="-256"/>
			<point x="401" y="-264"/>
			<point x="354" y="-268" type="curve"/>
		</contour>
		<contour>
			<point x="269" y="56" type="curve" smooth="yes"/>
			<point x="177" y="56"/>
			<point x="116" y="122"/>
			<point x="116" y="230" type="curve" smooth="yes"/>
			<point x="116" y="326"/>
			<point x="171" y="392"/>
			<point x="275" y="392" type="curve" smooth="yes"/>
			<point x="357" y="392"/>
			<point x="407" y="336"/>
			<point x="408" y="234" type="curve" smooth="yes"/>
			<point x="410" y="135" type="line"/>
			<point x="382" y="91"/>
			<point x="322" y="56"/>
		</contour>
		<contour>
			<point x="570" y="-10" type="line"/>
			<point x="611" y="30"/>
			<point x="636" y="72"/>
			<point x="636" y="110" type="curve" smooth="yes"/>
			<point x="636" y="142"/>
			<point x="619" y="166"/>
			<point x="601" y="166" type="curve" smooth="yes"/>
			<point x="588" y="166"/>
			<point x="561" y="153"/>
			<point x="545" y="132" type="curve"/>
			<point x="562" y="119"/>
			<point x="573" y="98"/>
			<point x="573" y="73" type="curve" smooth="yes"/>
			<point x="573" y="58"/>
			<point x="567" y="33"/>
			<point x="552" y="2" type="curve"/>
		</contour>
		<contour>
			<point x="566" y="249" type="line"/>
			<point x="614" y="301"/>
			<point x="650" y="345"/>
			<point x="650" y="390" type="curve" smooth="yes"/>
			<point x="650" y="420"/>
			<point x="632" y="440"/>
			<point x="602" y="440" type="curve" smooth="yes"/>
			<point x="573" y="440"/>
			<point x="548" y="415"/>
			<point x="554" y="383" type="curve"/>
			<point x="574" y="383"/>
			<point x="582" y="371"/>
			<point x="582" y="351" type="curve" smooth="yes"/>
			<point x="582" y="323"/>
			<point x="564" y="286"/>
			<point x="546" y="264" type="curve"/>
		</contour>
	</outline>
</glyph>
<glyph name="longs_i" format="2">
	<advance width="452"/>
	<unicode hex="EBA2"/>
	<outline>
		<contour>
			<point x="68" y="0" type="curve"/>
			<point x="68" y="0" type="line"/>
			<point x="169" y="0" type="line"/>
			<point x="158" y="188"/>
			<point x="144" y="524"/>
			<point x="154" y="610" type="curve"/>
			<point x="200" y="637"/>
			<point x="283" y="641"/>
			<point x="388" y="623" type="curve"/>
			<point x="396" y="687" type="line"/>
			<point x="311" y="735"/>
			<point x="174" y="690"/>
			<point x="120" y="648" type="curve"/>
			<point x="103" y="546"/>
			<point x="61" y="406"/>
			<point x="35" y="383" type="curve"/>
			<point x="35" y="372" type="line"/>
			<point x="48" y="363"/>
			<point x="67" y="341"/>
			<point x="67" y="303" type="curve"/>
			<point x="67" y="166"/>
			<point x="70" y="86"/>
		</contour>
		<contour>
			<point x="338" y="-10" type="curve"/>
			<point x="338" y="-10" type="line"/>
			<point x="442" y="35" type="line"/>
			<point x="435" y="65" type="line"/>
			<point x="379" y="65"/>
			<point x="366" y="75"/>
			<point x="365" y="160" type="curve"/>
			<point x="364" y="235"/>
			<point x="360" y="390"/>
			<point x="388" y="423" type="curve"/>
			<point x="379" y="444" type="line"/>
			<point x="331" y="428"/>
			<point x="278" y="413"/>
			<point x="220" y="398" type="curve"/>
			<point x="227" y="363" type="line"/>
			<point x="260" y="366"/>
			<point x="281" y="367"/>
			<point x="281" y="304" type="curve"/>
			<point x="281" y="254"/>
			<point x="275" y="160"/>
			<point x="275" y="80" type="curve"/>
			<point x="275" y="40"/>
			<point x="308" y="-10"/>
		</contour>
	</outline>
</glyph>
<glyph name="longs_longs" format="2">
	<advance width="472"/>
	<unicode hex="EBA6"/>
	<outline>
		<contour>
			<point x="63" y="0" type="curve"/>
			<point x="159" y="0" type="line"/>
			<point x="148" y="188"/>
			<point x="144" y="357"/>
			<point x="144" y="511" type="curve" smooth="yes"/>
			<point x="144" y="584"/>
			<point x="171" y="625"/>
			<point x="221" y="625" type="curve" smooth="yes"/>
			<point x="259" y="625"/>
			<point x="294" y="603"/>
			<point x="308" y="572" type="curve"/>
			<point x="301" y="555"/>
			<point x="297" y="539"/>
			<point x="294" y="523" type="curve" smooth="yes"/>
			<point x="277" y="421"/>
			<point x="272" y="406"/>
			<point x="246" y="383" type="curve"/>
			<point x="246" y="372" type="line"/>
			<point x="259" y="363"/>
			<point x="278" y="341"/>
			<point x="278" y="303" type="curve" smooth="yes"/>
			<point x="278" y="166"/>
			<point x="281" y="86"/>
			<point x="279" y="0" type="curve"/>
			<point x="374" y="0" type="line"/>
			<point x="363" y="188"/>
			<point x="365" y="387"/>
			<point x="365" y="541" type="curve" smooth="yes"/>
			<point x="365" y="614"/>
			<point x="402" y="655"/>
			<point x="457" y="655" type="curve" smooth="yes"/>
			<point x="493" y="655"/>
			<point x="522" y="625"/>
			<point x="539" y="594" type="curve"/>
			<point x="612" y="601" type="line"/>
			<point x="617" y="614" type="line"/>
			<point x="601" y="673"/>
			<point x="556" y="712"/>
			<point x="493" y="712" type="curve" smooth="yes"/>
			<point x="434" y="712"/>
			<point x="385" y="682"/>
			<point x="349" y="641" type="curve"/>
			<point x="326" y="667"/>
			<point x="299" y="682"/>
			<point x="257" y="682" type="curve" smooth="yes"/>
			<point x="164" y="682"/>
			<point x="88" y="582"/>
			<point x="78" y="494" type="curve" smooth="yes"/>
			<point x="66" y="391"/>
			<point x="61" y="406"/>
			<point x="35" y="383" type="curve"/>
			<point x="35" y="372" type="line"/>
			<point x="48" y="363"/>
			<point x="67" y="341"/>
			<point x="67" y="303" type="curve" smooth="yes"/>
			<point x="67" y="166"/>
			<point x="65" y="86"/>
		</contour>
	</outline>
</glyph>
<glyph name="c_t" format="2">
	<advance width="770"/>
	<unicode hex="EEC5"/>
	<outline>
		<contour>
			<point x="201" y="-9" type="curve"/>
			<point x="201" y="-9" type="line"/>
			<point x="263" y="-6"/>
			<point x="370" y="75"/>
			<point x="402" y="107" type="curve"/>
			<point x="383" y="128" type="line"/>
			<point x="337" y="93"/>
			<point x="292" y="67"/>
			<point x="244" y="67" type="curve"/>
			<point x="164" y="67"/>
			<point x="109" y="133"/>
			<point x="109" y="227" type="curve"/>
			<point x="109" y="281"/>
			<point x="121" y="329"/>
			<point x="162" y="366" type="curve"/>
			<point x="214" y="383"/>
			<point x="281" y="351"/>
			<point x="308" y="317" type="curve"/>
			<point x="376" y="382" type="line"/>
			<point x="349" y="414"/>
			<point x="335" y="455"/>
			<point x="335" y="505" type="curve"/>
			<point x="335" y="564"/>
			<point x="387" y="598"/>
			<point x="434" y="598" type="curve"/>
			<point x="501" y="598"/>
			<point x="539" y="552"/>
			<point x="535" y="462" type="curve"/>
			<point x="529" y="337"/>
			<point x="530" y="211"/>
			<point x="520" y="86" type="curve"/>
			<point x="516" y="37"/>
			<point x="561" y="-9"/>
			<point x="619" y="-9" type="curve"/>
			<point x="663" y="-9"/>
			<point x="717" y="33"/>
			<point x="765" y="70" type="curve"/>
			<point x="755" y="90" type="line"/>
			<point x="731" y="80"/>
			<point x="703" y="67"/>
			<point x="662" y="67" type="curve"/>
			<point x="617" y="67"/>
			<point x="606" y="103"/>
			<point x="607" y="166" type="curve"/>
			<point x="608" y="237"/>
			<point x="604" y="302"/>
			<point x="611" y="373" type="curve"/>
			<point x="654" y="378"/>
			<point x="691" y="376"/>
			<point x="742" y="369" type="curve"/>
			<point x="741" y="437" type="line"/>
			<point x="695" y="430"/>
			<point x="660" y="428"/>
			<point x="614" y="428" type="curve"/>
			<point x="617" y="515" type="line" smooth="yes"/>
			<point x="620" y="590"/>
			<point x="567" y="659"/>
			<point x="466" y="659" type="curve"/>
			<point x="356" y="659"/>
			<point x="294" y="601"/>
			<point x="294" y="513" type="curve"/>
			<point x="294" y="487"/>
			<point x="304" y="456"/>
			<point x="314" y="425" type="curve"/>
			<point x="290" y="440"/>
			<point x="266" y="443"/>
			<point x="250" y="442" type="curve"/>
			<point x="158" y="436"/>
			<point x="30" y="315"/>
			<point x="30" y="196" type="curve"/>
			<point x="30" y="75"/>
			<point x="95" y="-4"/>
		</contour>
	</outline>
</glyph>
<glyph name="f_f" format="2">
	<advance width="549"/>
	<unicode hex="FB00"/>
	<outline>
		<contour>
			<point x="58" y="0" type="curve"/>
			<point x="153" y="0" type="line"/>
			<point x="148" y="92"/>
			<point x="152" y="216"/>
			<point x="152" y="357" type="curve"/>
			<point x="326" y="357" type="line"/>
			<point x="325" y="236"/>
			<point x="323" y="121"/>
			<point x="314" y="0" type="curve"/>
			<point x="414" y="0" type="line"/>
			<point x="410" y="107"/>
			<point x="410" y="206"/>
			<point x="410" y="357" type="curve"/>
			<point x="530" y="357" type="line"/>
			<point x="539" y="408" type="line"/>
			<point x="409" y="409" type="line"/>
			<point x="409" y="475" type="line" smooth="yes"/>
			<point x="409" y="601"/>
			<point x="426" y="650"/>
			<point x="509" y="650" type="curve" smooth="yes"/>
			<point x="546" y="650"/>
			<point x="585" y="620"/>
			<point x="591" y="582" type="curve"/>
			<point x="610" y="577" type="line"/>
			<point x="649" y="644" type="line"/>
			<point x="637" y="685"/>
			<point x="581" y="710"/>
			<point x="532" y="710" type="curve" smooth="yes"/>
			<point x="477" y="710"/>
			<point x="434" y="682"/>
			<point x="408" y="655" type="curve"/>
			<point x="371" y="688"/>
			<point x="327" y="710"/>
			<point x="279" y="710" type="curve" smooth="yes"/>
			<point x="196" y="710"/>
			<point x="74" y="625"/>
			<point x="74" y="474" type="curve" smooth="yes"/>
			<point x="74" y="435"/>
			<point x="57" y="402"/>
			<point x="35" y="390" type="curve"/>
			<point x="35" y="369" type="line"/>
			<point x="47" y="362"/>
			<point x="67" y="342"/>
			<point x="67" y="315" type="curve" smooth="yes"/>
			<point x="67" y="240"/>
			<point x="64" y="121"/>
		</contour>
		<contour>
			<point x="152" y="409" type="line"/>
			<point x="156" y="505" type="line" smooth="yes"/>
			<point x="160" y="605"/>
			<point x="200" y="645"/>
			<point x="246" y="645" type="curve" smooth="yes"/>
			<point x="298" y="645"/>
			<point x="324" y="621"/>
			<point x="349" y="588" type="curve"/>
			<point x="337" y="554"/>
			<point x="326" y="466"/>
			<point x="326" y="409" type="curve"/>
		</contour>
	</outline>
</glyph>
<glyph name="longs_t" format="2">
	<advance width="644"/>
	<unicode hex="FB05"/>
	<outline>
		<contour>
			<point x="443" y="-10" type="curve"/>
			<point x="443" y="-10" type="line"/>
			<point x="514" y="-10"/>
			<point x="579" y="39"/>
			<point x="624" y="72" type="curve"/>
			<point x="616" y="90" type="line"/>
			<point x="580" y="76"/>
			<point x="536" y="65"/>
			<point x="508" y="65" type="curve"/>
			<point x="458" y="65"/>
			<point x="446" y="97"/>
			<point x="444" y="161" type="curve"/>
			<point x="441" y="255"/>
			<point x="442" y="319"/>
			<point x="444" y="366" type="curve"/>
			<point x="507" y="369"/>
			<point x="572" y="369"/>
			<point x="638" y="365" type="curve"/>
			<point x="639" y="433" type="line"/>
			<point x="602" y="429"/>
			<point x="519" y="429"/>
			<point x="450" y="429" type="curve"/>
			<point x="450" y="471" type="line"/>
			<point x="450" y="477" type="line" smooth="yes"/>
			<point x="443" y="629"/>
			<point x="391" y="708"/>
			<point x="272" y="708" type="curve"/>
			<point x="164" y="708"/>
			<point x="88" y="612"/>
			<point x="78" y="524" type="curve"/>
			<point x="66" y="421"/>
			<point x="61" y="406"/>
			<point x="35" y="383" type="curve"/>
			<point x="35" y="372" type="line"/>
			<point x="48" y="363"/>
			<point x="67" y="341"/>
			<point x="67" y="303" type="curve"/>
			<point x="67" y="166"/>
			<point x="65" y="86"/>
			<point x="63" y="0" type="curve"/>
			<point x="159" y="0" type="line"/>
			<point x="148" y="188"/>
			<point x="144" y="372"/>
			<point x="144" y="526" type="curve"/>
			<point x="144" y="609"/>
			<point x="191" y="654"/>
			<point x="256" y="654" type="curve"/>
			<point x="360" y="654"/>
			<point x="370" y="546"/>
			<point x="367" y="427" type="curve"/>
			<point x="337" y="424" type="line"/>
			<point x="336" y="421" type="line"/>
			<point x="359" y="357" type="line"/>
			<point x="358" y="308"/>
			<point x="361" y="198"/>
			<point x="362" y="112" type="curve"/>
			<point x="364" y="17"/>
			<point x="387" y="-10"/>
		</contour>
	</outline>
</glyph>
<glyph name="d_strok" format="2">
	<advance width="457"/>
	<outline>
		<contour>
			<point x="319" y="-8" type="line"/>
			<point x="323" y="-12" type="line"/>
			<point x="450" y="35" type="line"/>
			<point x="448" y="61" type="line"/>
			<point x="412" y="77"/>
			<point x="400" y="92"/>
			<point x="397" y="186" type="curve"/>
			<point x="394" y="297"/>
			<point x="394" y="400"/>
			<point x="396" y="485" type="curve"/>
			<point x="491" y="488"/>
			<point x="527" y="508"/>
			<point x="527" y="550" type="curve"/>
			<point x="527" y="595"/>
			<point x="478" y="634"/>
			<point x="442" y="650" type="curve"/>
			<point x="423" y="631" type="line"/>
			<point x="462" y="576"/>
			<point x="451" y="543"/>
			<point x="397" y="532" type="curve"/>
			<point x="400" y="641"/>
			<point x="405" y="710"/>
			<point x="405" y="710" type="curve"/>
			<point x="352" y="704"/>
			<point x="281" y="700"/>
			<point x="204" y="700" type="curve"/>
			<point x="204" y="669" type="line"/>
			<point x="276" y="669"/>
			<point x="299" y="649"/>
			<point x="301" y="594" type="curve"/>
			<point x="303" y="530" type="line"/>
			<point x="217" y="533"/>
			<point x="110" y="541"/>
			<point x="77" y="545" type="curve"/>
			<point x="71" y="514" type="line"/>
			<point x="148" y="502"/>
			<point x="230" y="491"/>
			<point x="305" y="487" type="curve"/>
			<point x="307" y="430" type="line"/>
			<point x="283" y="433"/>
			<point x="254" y="435"/>
			<point x="225" y="435" type="curve"/>
			<point x="137" y="435"/>
			<point x="30" y="316"/>
			<point x="30" y="176" type="curve"/>
			<point x="30" y="76"/>
			<point x="104" y="-10"/>
			<point x="204" y="-10" type="curve"/>
			<point x="229" y="9"/>
			<point x="266" y="34"/>
			<point x="312" y="77" type="curve"/>
		</contour>
		<contour>
			<point x="312" y="102" type="curve"/>
			<point x="312" y="102" type="line"/>
			<point x="205" y="46"/>
			<point x="91" y="99"/>
			<point x="91" y="228" type="curve"/>
			<point x="91" y="317"/>
			<point x="145" y="369"/>
			<point x="210" y="369" type="curve"/>
			<point x="249" y="369"/>
			<point x="280" y="362"/>
			<point x="309" y="341" type="curve"/>
			<point x="311" y="258"/>
			<point x="312" y="175"/>
		</contour>
	</outline>
</glyph>
<glyph name="longs_f" format="2">
	<advance width="593"/>
	<outline>
		<contour>
			<point x="68" y="0" type="curve"/>
			<point x="68" y="0" type="line"/>
			<point x="163" y="0" type="line"/>
			<point x="152" y="188"/>
			<point x="154" y="387"/>
			<point x="154" y="541" type="curve"/>
			<point x="154" y="614"/>
			<point x="191" y="655"/>
			<point x="246" y="655" type="curve"/>
			<point x="281" y="655"/>
			<point x="309" y="627"/>
			<point x="327" y="596" type="curve"/>
			<point x="319" y="560"/>
			<point x="323" y="514"/>
			<point x="323" y="484" type="curve"/>
			<point x="323" y="412"/>
			<point x="307" y="380"/>
			<point x="280" y="343" type="curve"/>
			<point x="280" y="330" type="line"/>
			<point x="314" y="315"/>
			<point x="320" y="292"/>
			<point x="320" y="263" type="curve"/>
			<point x="318" y="0" type="line"/>
			<point x="408" y="0" type="line"/>
			<point x="404" y="336" type="line"/>
			<point x="461" y="336"/>
			<point x="517" y="334"/>
			<point x="574" y="330" type="curve"/>
			<point x="587" y="414" type="line"/>
			<point x="572" y="417" type="line"/>
			<point x="561" y="405"/>
			<point x="487" y="396"/>
			<point x="403" y="393" type="curve"/>
			<point x="401" y="568" type="line" smooth="yes"/>
			<point x="400" y="629"/>
			<point x="430" y="658"/>
			<point x="469" y="658" type="curve"/>
			<point x="509" y="658"/>
			<point x="547" y="620"/>
			<point x="571" y="550" type="curve"/>
			<point x="592" y="550" type="line"/>
			<point x="608" y="658" type="line"/>
			<point x="587" y="688"/>
			<point x="547" y="712"/>
			<point x="487" y="712" type="curve"/>
			<point x="448" y="712"/>
			<point x="414" y="690"/>
			<point x="383" y="662" type="curve"/>
			<point x="361" y="693"/>
			<point x="326" y="712"/>
			<point x="282" y="712" type="curve"/>
			<point x="174" y="712"/>
			<point x="98" y="612"/>
			<point x="83" y="523" type="curve"/>
			<point x="66" y="421"/>
			<point x="61" y="406"/>
			<point x="35" y="383" type="curve"/>
			<point x="35" y="372" type="line"/>
			<point x="48" y="363"/>
			<point x="67" y="341"/>
			<point x="67" y="303" type="curve"/>
			<point x="67" y="166"/>
			<point x="70" y="86"/>
		</contour>
	</outline>
</glyph>
<glyph name="longs_longs_i" format="2">
	<advance width="654"/>
	<outline>
		<contour>
			<point x="63" y="0" type="curve"/>
			<point x="63" y="0" type="line"/>
			<point x="159" y="0" type="line"/>
			<point x="148" y="188"/>
			<point x="144" y="357"/>
			<point x="144" y="511" type="curve"/>
			<point x="144" y="584"/>
			<point x="171" y="625"/>
			<point x="221" y="625" type="curve"/>
			<point x="265" y="625"/>
			<point x="304" y="595"/>
			<point x="313" y="556" type="curve"/>
			<point x="310" y="545"/>
			<point x="307" y="534"/>
			<point x="305" y="523" type="curve"/>
			<point x="288" y="421"/>
			<point x="283" y="406"/>
			<point x="257" y="383" type="curve"/>
			<point x="257" y="372" type="line"/>
			<point x="270" y="363"/>
			<point x="289" y="341"/>
			<point x="289" y="303" type="curve"/>
			<point x="289" y="166"/>
			<point x="292" y="86"/>
			<point x="290" y="0" type="curve"/>
			<point x="385" y="0" type="line"/>
			<point x="374" y="188"/>
			<point x="376" y="387"/>
			<point x="376" y="541" type="curve"/>
			<point x="376" y="614"/>
			<point x="413" y="655"/>
			<point x="468" y="655" type="curve"/>
			<point x="504" y="655"/>
			<point x="533" y="625"/>
			<point x="550" y="594" type="curve"/>
			<point x="623" y="601" type="line"/>
			<point x="628" y="614" type="line"/>
			<point x="612" y="673"/>
			<point x="567" y="712"/>
			<point x="504" y="712" type="curve"/>
			<point x="442" y="712"/>
			<point x="390" y="679"/>
			<point x="355" y="634" type="curve"/>
			<point x="331" y="664"/>
			<point x="302" y="682"/>
			<point x="257" y="682" type="curve"/>
			<point x="164" y="682"/>
			<point x="88" y="582"/>
			<point x="78" y="494" type="curve"/>
			<point x="66" y="391"/>
			<point x="61" y="406"/>
			<point x="35" y="383" type="curve"/>
			<point x="35" y="372" type="line"/>
			<point x="48" y="363"/>
			<point x="67" y="341"/>
			<point x="67" y="303" type="curve"/>
			<point x="67" y="166"/>
			<point x="65" y="86"/>
		</contour>
		<contour>
			<point x="540" y="-10" type="curve"/>
			<point x="540" y="-10" type="line"/>
			<point x="644" y="35" type="line"/>
			<point x="637" y="65" type="line"/>
			<point x="581" y="65"/>
			<point x="568" y="75"/>
			<point x="567" y="160" type="curve"/>
			<point x="566" y="235"/>
			<point x="562" y="390"/>
			<point x="590" y="423" type="curve"/>
			<point x="581" y="444" type="line"/>
			<point x="533" y="428"/>
			<point x="480" y="413"/>
			<point x="422" y="398" type="curve"/>
			<point x="429" y="363" type="line"/>
			<point x="462" y="366"/>
			<point x="483" y="367"/>
			<point x="483" y="304" type="curve"/>
			<point x="483" y="254"/>
			<point x="477" y="160"/>
			<point x="477" y="80" type="curve"/>
			<point x="477" y="40"/>
			<point x="510" y="-10"/>
		</contour>
	</outline>
</glyph>
<glyph name="p.ss01" format="2">
	<advance width="506"/>
	<outline>
		<contour>
			<point x="31" y="-274" type="curve"/>
			<point x="30" y="-304" type="line"/>
			<point x="102" y="-300"/>
			<point x="169" y="-300"/>
			<point x="241" y="-304" type="curve"/>
			<point x="241" y="-274" type="line"/>
			<point x="148" y="-264"/>
			<point x="147" y="-264"/>
			<point x="147" y="-244" type="curve"/>
			<point x="147" y="-187"/>
			<point x="146" y="-97"/>
			<point x="145" y="2" type="curve"/>
			<point x="175" y="-6"/>
			<point x="209" y="-9"/>
			<point x="243" y="-9" type="curve"/>
			<point x="394" y="-9"/>
			<point x="476" y="119"/>
			<point x="476" y="235" type="curve"/>
			<point x="476" y="345"/>
			<point x="423" y="440"/>
			<point x="324" y="440" type="curve"/>
			<point x="281" y="440"/>
			<point x="208" y="407"/>
			<point x="147" y="385" type="curve"/>
			<point x="148" y="441" type="line"/>
			<point x="134" y="452" type="line"/>
			<point x="94" y="443"/>
			<point x="76" y="438"/>
			<point x="44" y="430" type="curve"/>
			<point x="73" y="250"/>
			<point x="58" y="-82"/>
			<point x="53" y="-248" type="curve"/>
			<point x="53" y="-262"/>
			<point x="52" y="-263"/>
		</contour>
		<contour>
			<point x="271" y="40" type="curve"/>
			<point x="271" y="40" type="line"/>
			<point x="205" y="40"/>
			<point x="173" y="64"/>
			<point x="145" y="95" type="curve"/>
			<point x="144" y="184"/>
			<point x="144" y="274"/>
			<point x="146" y="350" type="curve"/>
			<point x="173" y="361"/>
			<point x="209" y="370"/>
			<point x="243" y="370" type="curve"/>
			<point x="312" y="370"/>
			<point x="395" y="303"/>
			<point x="395" y="186" type="curve"/>
			<point x="395" y="114"/>
			<point x="362" y="40"/>
		</contour>
	</outline>
</glyph>
<glyph name="p_urrot" format="2">
	<advance width="524"/>
	<outline>
		<contour>
			<point x="61" y="-298" type="curve"/>
			<point x="176" y="-299" type="line"/>
			<point x="169" y="-255"/>
			<point x="163" y="-133"/>
			<point x="159" y="1" type="curve"/>
			<point x="187" y="-6"/>
			<point x="220" y="-9"/>
			<point x="252" y="-9" type="curve"/>
			<point x="403" y="-9"/>
			<point x="494" y="99"/>
			<point x="494" y="235" type="curve"/>
			<point x="494" y="365"/>
			<point x="398" y="440"/>
			<point x="299" y="440" type="curve"/>
			<point x="257" y="440"/>
			<point x="208" y="421"/>
			<point x="156" y="393" type="curve"/>
			<point x="157" y="441" type="line"/>
			<point x="143" y="452" type="line"/>
			<point x="103" y="443"/>
			<point x="67" y="438"/>
			<point x="25" y="430" type="curve"/>
			<point x="25" y="395" type="line"/>
			<point x="54" y="387"/>
			<point x="65" y="376"/>
			<point x="69" y="319" type="curve"/>
			<point x="77" y="206"/>
			<point x="63" y="-255"/>
		</contour>
		<contour>
			<point x="270" y="31" type="curve"/>
			<point x="270" y="31" type="line"/>
			<point x="206" y="31"/>
			<point x="182" y="59"/>
			<point x="156" y="90" type="curve"/>
			<point x="154" y="188"/>
			<point x="154" y="284"/>
			<point x="155" y="355" type="curve"/>
			<point x="182" y="366"/>
			<point x="218" y="375"/>
			<point x="252" y="375" type="curve"/>
			<point x="341" y="375"/>
			<point x="405" y="304"/>
			<point x="405" y="207" type="curve"/>
			<point x="405" y="115"/>
			<point x="361" y="31"/>
		</contour>
		<contour>
			<point x="189" y="471" type="curve"/>
			<point x="206" y="462" type="line"/>
			<point x="229" y="467"/>
			<point x="278" y="494"/>
			<point x="320" y="508" type="curve"/>
			<point x="314" y="535" type="line"/>
			<point x="255" y="527"/>
			<point x="251" y="525"/>
			<point x="280" y="675" type="curve"/>
			<point x="265" y="685" type="line"/>
			<point x="235" y="672"/>
			<point x="198" y="652"/>
			<point x="152" y="641" type="curve"/>
			<point x="156" y="618" type="line"/>
			<point x="202" y="598"/>
			<point x="193" y="596"/>
		</contour>
	</outline>
</glyph>
<glyph name="r.ss01" format="2">
	<advance width="363"/>
	<outline>
		<contour>
			<point x="61" y="-4" type="curve"/>
			<point x="61" y="-4" type="line"/>
			<point x="156" y="0" type="line"/>
			<point x="154" y="102"/>
			<point x="153" y="229"/>
			<point x="153" y="334" type="curve"/>
			<point x="205" y="353"/>
			<point x="232" y="329"/>
			<point x="261" y="310" type="curve"/>
			<point x="358" y="394" type="line"/>
			<point x="355" y="406" type="line"/>
			<point x="313" y="411"/>
			<point x="275" y="421"/>
			<point x="245" y="440" type="curve"/>
			<point x="215" y="411"/>
			<point x="187" y="390"/>
			<point x="153" y="368" type="curve"/>
			<point x="151" y="430" type="line"/>
			<point x="55" y="430" type="line"/>
			<point x="67" y="295"/>
			<point x="66" y="142"/>
		</contour>
	</outline>
</glyph>
